<?xml version="1.0" encoding="UTF-8" standalone="no"?>
<!DOCTYPE svg PUBLIC "-//W3C//DTD SVG 1.1//EN"
 "http://www.w3.org/Graphics/SVG/1.1/DTD/svg11.dtd">
<!-- Generated by graphviz version 13.1.1 (20250719.2154)
 -->
<!-- Title: batch_classification Pages: 1 -->
<svg width="418pt" height="580pt"
 viewBox="0.00 0.00 418.00 580.00" xmlns="http://www.w3.org/2000/svg" xmlns:xlink="http://www.w3.org/1999/xlink">
<g id="graph0" class="graph" transform="scale(1 1) rotate(0) translate(21.6 558)">
<title>batch_classification</title>
<polygon fill="white" stroke="none" points="-21.6,21.6 -21.6,-558 396.26,-558 396.26,21.6 -21.6,21.6"/>
<!-- INPUT -->
<g id="node1" class="node">
<title>INPUT</title>
<path fill="#d6eaf8" stroke="#5dade2" stroke-width="1.2" d="M228.41,-536.4C228.41,-536.4 149.12,-536.4 149.12,-536.4 143.12,-536.4 137.12,-530.4 137.12,-524.4 137.12,-524.4 137.12,-504.12 137.12,-504.12 137.12,-498.12 143.12,-492.12 149.12,-492.12 149.12,-492.12 228.41,-492.12 228.41,-492.12 234.41,-492.12 240.41,-498.12 240.41,-504.12 240.41,-504.12 240.41,-524.4 240.41,-524.4 240.41,-530.4 234.41,-536.4 228.41,-536.4"/>
<text xml:space="preserve" text-anchor="middle" x="188.77" y="-517.31" font-family="Helvetica,sans-Serif" font-size="11.00">Input Events</text>
<text xml:space="preserve" text-anchor="middle" x="188.77" y="-503.81" font-family="Helvetica,sans-Serif" font-size="11.00">about 1,500 total</text>
</g>
<!-- FUNC -->
<g id="node2" class="node">
<title>FUNC</title>
<path fill="#af7ac5" stroke="#8e44ad" stroke-width="1.2" d="M244.16,-456.12C244.16,-456.12 133.38,-456.12 133.38,-456.12 127.38,-456.12 121.37,-450.12 121.37,-444.12 121.37,-444.12 121.37,-423.84 121.37,-423.84 121.37,-417.84 127.37,-411.84 133.38,-411.84 133.38,-411.84 244.16,-411.84 244.16,-411.84 250.16,-411.84 256.16,-417.84 256.16,-423.84 256.16,-423.84 256.16,-444.12 256.16,-444.12 256.16,-450.12 250.16,-456.12 244.16,-456.12"/>
<text xml:space="preserve" text-anchor="middle" x="188.77" y="-437.03" font-family="Helvetica,sans-Serif" font-size="11.00" fill="white">classify_events_batch()</text>
<text xml:space="preserve" text-anchor="middle" x="188.77" y="-423.53" font-family="Helvetica,sans-Serif" font-size="11.00" fill="white">batch_size = 500</text>
</g>
<!-- INPUT&#45;&gt;FUNC -->
<g id="edge1" class="edge">
<title>INPUT&#45;&gt;FUNC</title>
<path fill="none" stroke="#5d6d7e" stroke-width="1.3" d="M188.77,-491.87C188.77,-484 188.77,-474.91 188.77,-466.34"/>
<polygon fill="#5d6d7e" stroke="#5d6d7e" stroke-width="1.3" points="191.57,-466.58 188.77,-458.58 185.97,-466.58 191.57,-466.58"/>
</g>
<!-- B1 -->
<g id="node3" class="node">
<title>B1</title>
<path fill="#85c1e9" stroke="#2e86c1" stroke-width="1.2" d="M63.54,-375.84C63.54,-375.84 12,-375.84 12,-375.84 6,-375.84 0,-369.84 0,-363.84 0,-363.84 0,-343.56 0,-343.56 0,-337.56 6,-331.56 12,-331.56 12,-331.56 63.54,-331.56 63.54,-331.56 69.54,-331.56 75.54,-337.56 75.54,-343.56 75.54,-343.56 75.54,-363.84 75.54,-363.84 75.54,-369.84 69.54,-375.84 63.54,-375.84"/>
<text xml:space="preserve" text-anchor="middle" x="37.77" y="-356.75" font-family="Helvetica,sans-Serif" font-size="11.00">Batch 1</text>
<text xml:space="preserve" text-anchor="middle" x="37.77" y="-343.25" font-family="Helvetica,sans-Serif" font-size="11.00">500 events</text>
</g>
<!-- FUNC&#45;&gt;B1 -->
<g id="edge2" class="edge">
<title>FUNC&#45;&gt;B1</title>
<path fill="none" stroke="#5d6d7e" stroke-width="1.3" d="M147.11,-411.38C127.72,-401.33 104.57,-389.33 84.58,-378.97"/>
<polygon fill="#5d6d7e" stroke="#5d6d7e" stroke-width="1.3" points="86.07,-376.59 77.68,-375.39 83.49,-381.56 86.07,-376.59"/>
</g>
<!-- B2 -->
<g id="node4" class="node">
<title>B2</title>
<path fill="#85c1e9" stroke="#2e86c1" stroke-width="1.2" d="M164.54,-375.84C164.54,-375.84 113,-375.84 113,-375.84 107,-375.84 101,-369.84 101,-363.84 101,-363.84 101,-343.56 101,-343.56 101,-337.56 107,-331.56 113,-331.56 113,-331.56 164.54,-331.56 164.54,-331.56 170.54,-331.56 176.54,-337.56 176.54,-343.56 176.54,-343.56 176.54,-363.84 176.54,-363.84 176.54,-369.84 170.54,-375.84 164.54,-375.84"/>
<text xml:space="preserve" text-anchor="middle" x="138.77" y="-356.75" font-family="Helvetica,sans-Serif" font-size="11.00">Batch 2</text>
<text xml:space="preserve" text-anchor="middle" x="138.77" y="-343.25" font-family="Helvetica,sans-Serif" font-size="11.00">500 events</text>
</g>
<!-- FUNC&#45;&gt;B2 -->
<g id="edge3" class="edge">
<title>FUNC&#45;&gt;B2</title>
<path fill="none" stroke="#5d6d7e" stroke-width="1.3" d="M175.11,-411.59C169.8,-403.29 163.64,-393.63 157.91,-384.66"/>
<polygon fill="#5d6d7e" stroke="#5d6d7e" stroke-width="1.3" points="160.32,-383.23 153.65,-377.99 155.6,-386.24 160.32,-383.23"/>
</g>
<!-- B3 -->
<g id="node5" class="node">
<title>B3</title>
<path fill="#85c1e9" stroke="#2e86c1" stroke-width="1.2" d="M265.54,-375.84C265.54,-375.84 214,-375.84 214,-375.84 208,-375.84 202,-369.84 202,-363.84 202,-363.84 202,-343.56 202,-343.56 202,-337.56 208,-331.56 214,-331.56 214,-331.56 265.54,-331.56 265.54,-331.56 271.54,-331.56 277.54,-337.56 277.54,-343.56 277.54,-343.56 277.54,-363.84 277.54,-363.84 277.54,-369.84 271.54,-375.84 265.54,-375.84"/>
<text xml:space="preserve" text-anchor="middle" x="239.77" y="-356.75" font-family="Helvetica,sans-Serif" font-size="11.00">Batch 3</text>
<text xml:space="preserve" text-anchor="middle" x="239.77" y="-343.25" font-family="Helvetica,sans-Serif" font-size="11.00">500 events</text>
</g>
<!-- FUNC&#45;&gt;B3 -->
<g id="edge4" class="edge">
<title>FUNC&#45;&gt;B3</title>
<path fill="none" stroke="#5d6d7e" stroke-width="1.3" d="M202.71,-411.59C208.11,-403.29 214.4,-393.63 220.25,-384.66"/>
<polygon fill="#5d6d7e" stroke="#5d6d7e" stroke-width="1.3" points="222.58,-386.22 224.6,-377.99 217.89,-383.16 222.58,-386.22"/>
</g>
<!-- B4 -->
<g id="node6" class="node">
<title>B4</title>
<path fill="#85c1e9" stroke="#2e86c1" stroke-width="1.2" d="M362.66,-375.84C362.66,-375.84 314.88,-375.84 314.88,-375.84 308.88,-375.84 302.88,-369.84 302.88,-363.84 302.88,-363.84 302.88,-343.56 302.88,-343.56 302.88,-337.56 308.88,-331.56 314.88,-331.56 314.88,-331.56 362.66,-331.56 362.66,-331.56 368.66,-331.56 374.66,-337.56 374.66,-343.56 374.66,-343.56 374.66,-363.84 374.66,-363.84 374.66,-369.84 368.66,-375.84 362.66,-375.84"/>
<text xml:space="preserve" text-anchor="middle" x="338.77" y="-356.75" font-family="Helvetica,sans-Serif" font-size="11.00">Batch 4</text>
<text xml:space="preserve" text-anchor="middle" x="338.77" y="-343.25" font-family="Helvetica,sans-Serif" font-size="11.00">remainder</text>
</g>
<!-- FUNC&#45;&gt;B4 -->
<g id="edge5" class="edge">
<title>FUNC&#45;&gt;B4</title>
<path fill="none" stroke="#5d6d7e" stroke-width="1.3" d="M230.16,-411.38C249.87,-401.09 273.49,-388.77 293.67,-378.24"/>
<polygon fill="#5d6d7e" stroke="#5d6d7e" stroke-width="1.3" points="294.83,-380.79 300.63,-374.61 292.24,-375.82 294.83,-380.79"/>
</g>
<!-- VEC -->
<g id="node7" class="node">
<title>VEC</title>
<path fill="#d2b4de" stroke="#8e44ad" stroke-width="1.2" d="M229.54,-295.56C229.54,-295.56 148,-295.56 148,-295.56 142,-295.56 136,-289.56 136,-283.56 136,-283.56 136,-271.56 136,-271.56 136,-265.56 142,-259.56 148,-259.56 148,-259.56 229.54,-259.56 229.54,-259.56 235.54,-259.56 241.54,-265.56 241.54,-271.56 241.54,-271.56 241.54,-283.56 241.54,-283.56 241.54,-289.56 235.54,-295.56 229.54,-295.56"/>
<text xml:space="preserve" text-anchor="middle" x="188.77" y="-273.86" font-family="Helvetica,sans-Serif" font-size="11.00">TF&#45;IDF Vectorize</text>
</g>
<!-- B1&#45;&gt;VEC -->
<g id="edge6" class="edge">
<title>B1&#45;&gt;VEC</title>
<path fill="none" stroke="#5d6d7e" stroke-width="1.3" d="M75.87,-333.99C96.68,-323.77 122.56,-311.07 144.29,-300.4"/>
<polygon fill="#5d6d7e" stroke="#5d6d7e" stroke-width="1.3" points="145.3,-303.02 151.25,-296.98 142.83,-298 145.3,-303.02"/>
</g>
<!-- B2&#45;&gt;VEC -->
<g id="edge7" class="edge">
<title>B2&#45;&gt;VEC</title>
<path fill="none" stroke="#5d6d7e" stroke-width="1.3" d="M153.23,-331.26C159,-322.7 165.69,-312.78 171.7,-303.88"/>
<polygon fill="#5d6d7e" stroke="#5d6d7e" stroke-width="1.3" points="173.94,-305.56 176.09,-297.36 169.3,-302.42 173.94,-305.56"/>
</g>
<!-- B3&#45;&gt;VEC -->
<g id="edge8" class="edge">
<title>B3&#45;&gt;VEC</title>
<path fill="none" stroke="#5d6d7e" stroke-width="1.3" d="M225.02,-331.26C219.13,-322.7 212.31,-312.78 206.19,-303.88"/>
<polygon fill="#5d6d7e" stroke="#5d6d7e" stroke-width="1.3" points="208.53,-302.35 201.69,-297.35 203.92,-305.53 208.53,-302.35"/>
</g>
<!-- B4&#45;&gt;VEC -->
<g id="edge9" class="edge">
<title>B4&#45;&gt;VEC</title>
<path fill="none" stroke="#5d6d7e" stroke-width="1.3" d="M302.46,-334.75C281.58,-324.43 255.19,-311.39 233.09,-300.47"/>
<polygon fill="#5d6d7e" stroke="#5d6d7e" stroke-width="1.3" points="234.41,-297.99 225.99,-296.96 231.92,-303.01 234.41,-297.99"/>
</g>
<!-- PRED -->
<g id="node8" class="node">
<title>PRED</title>
<path fill="#d2b4de" stroke="#8e44ad" stroke-width="1.2" d="M218.66,-223.56C218.66,-223.56 158.88,-223.56 158.88,-223.56 152.88,-223.56 146.88,-217.56 146.88,-211.56 146.88,-211.56 146.88,-199.56 146.88,-199.56 146.88,-193.56 152.88,-187.56 158.88,-187.56 158.88,-187.56 218.66,-187.56 218.66,-187.56 224.66,-187.56 230.66,-193.56 230.66,-199.56 230.66,-199.56 230.66,-211.56 230.66,-211.56 230.66,-217.56 224.66,-223.56 218.66,-223.56"/>
<text xml:space="preserve" text-anchor="middle" x="188.77" y="-201.86" font-family="Helvetica,sans-Serif" font-size="11.00">SVM Predict</text>
</g>
<!-- VEC&#45;&gt;PRED -->
<g id="edge10" class="edge">
<title>VEC&#45;&gt;PRED</title>
<path fill="none" stroke="#5d6d7e" stroke-width="1.3" d="M188.77,-259.26C188.77,-251.66 188.77,-242.55 188.77,-234.06"/>
<polygon fill="#5d6d7e" stroke="#5d6d7e" stroke-width="1.3" points="191.57,-234.12 188.77,-226.12 185.97,-234.12 191.57,-234.12"/>
</g>
<!-- CONF -->
<g id="node9" class="node">
<title>CONF</title>
<path fill="#d2b4de" stroke="#8e44ad" stroke-width="1.2" d="M251.66,-151.56C251.66,-151.56 125.88,-151.56 125.88,-151.56 119.88,-151.56 113.87,-145.56 113.87,-139.56 113.87,-139.56 113.87,-119.28 113.87,-119.28 113.87,-113.28 119.87,-107.28 125.87,-107.28 125.87,-107.28 251.66,-107.28 251.66,-107.28 257.66,-107.28 263.66,-113.28 263.66,-119.28 263.66,-119.28 263.66,-139.56 263.66,-139.56 263.66,-145.56 257.66,-151.56 251.66,-151.56"/>
<text xml:space="preserve" text-anchor="middle" x="188.77" y="-132.47" font-family="Helvetica,sans-Serif" font-size="11.00">Confidence Score</text>
<text xml:space="preserve" text-anchor="middle" x="188.77" y="-118.97" font-family="Helvetica,sans-Serif" font-size="11.00">sigmoid(decision_function)</text>
</g>
<!-- PRED&#45;&gt;CONF -->
<g id="edge11" class="edge">
<title>PRED&#45;&gt;CONF</title>
<path fill="none" stroke="#5d6d7e" stroke-width="1.3" d="M188.77,-186.99C188.77,-179.48 188.77,-170.48 188.77,-161.89"/>
<polygon fill="#5d6d7e" stroke="#5d6d7e" stroke-width="1.3" points="191.57,-162.07 188.77,-154.07 185.97,-162.07 191.57,-162.07"/>
</g>
<!-- MERGE -->
<g id="node10" class="node">
<title>MERGE</title>
<path fill="#82e0aa" stroke="#28b463" stroke-width="1.2" d="M247.54,-71.28C247.54,-71.28 130,-71.28 130,-71.28 124,-71.28 118,-65.28 118,-59.28 118,-59.28 118,-12 118,-12 118,-6 124,0 130,0 130,0 247.54,0 247.54,0 253.54,0 259.54,-6 259.54,-12 259.54,-12 259.54,-59.28 259.54,-59.28 259.54,-65.28 253.54,-71.28 247.54,-71.28"/>
<text xml:space="preserve" text-anchor="middle" x="188.77" y="-52.19" font-family="Helvetica,sans-Serif" font-size="11.00">Merge Results</text>
<text xml:space="preserve" text-anchor="middle" x="188.77" y="-38.69" font-family="Helvetica,sans-Serif" font-size="11.00">add is_community_event</text>
<text xml:space="preserve" text-anchor="middle" x="188.77" y="-25.19" font-family="Helvetica,sans-Serif" font-size="11.00">add confidence</text>
<text xml:space="preserve" text-anchor="middle" x="188.77" y="-11.69" font-family="Helvetica,sans-Serif" font-size="11.00">add needs_review</text>
</g>
<!-- CONF&#45;&gt;MERGE -->
<g id="edge12" class="edge">
<title>CONF&#45;&gt;MERGE</title>
<path fill="none" stroke="#5d6d7e" stroke-width="1.3" d="M188.77,-107.13C188.77,-99.52 188.77,-90.61 188.77,-81.75"/>
<polygon fill="#5d6d7e" stroke="#5d6d7e" stroke-width="1.3" points="191.57,-81.8 188.77,-73.8 185.97,-81.8 191.57,-81.8"/>
</g>
</g>
</svg>
