<?xml version="1.0" encoding="UTF-8" standalone="no"?>
<!DOCTYPE svg PUBLIC "-//W3C//DTD SVG 1.1//EN"
 "http://www.w3.org/Graphics/SVG/1.1/DTD/svg11.dtd">
<!-- Generated by graphviz version 13.1.1 (20250719.2154)
 -->
<!-- Title: data_transformation Pages: 1 -->
<svg width="1559pt" height="120pt"
 viewBox="0.00 0.00 1559.00 120.00" xmlns="http://www.w3.org/2000/svg" xmlns:xlink="http://www.w3.org/1999/xlink">
<g id="graph0" class="graph" transform="scale(1 1) rotate(0) translate(21.6 98.88)">
<title>data_transformation</title>
<polygon fill="white" stroke="none" points="-21.6,21.6 -21.6,-98.88 1537.29,-98.88 1537.29,21.6 -21.6,21.6"/>
<!-- RAW -->
<g id="node1" class="node">
<title>RAW</title>
<path fill="#d6dbdf" stroke="#566573" stroke-width="1.2" d="M175.92,-59.28C175.92,-59.28 12,-59.28 12,-59.28 6,-59.28 0,-53.28 0,-47.28 0,-47.28 0,-30 0,-30 0,-24 6,-18 12,-18 12,-18 175.92,-18 175.92,-18 181.92,-18 187.92,-24 187.92,-30 187.92,-30 187.92,-47.28 187.92,-47.28 187.92,-53.28 181.92,-59.28 175.92,-59.28"/>
<text xml:space="preserve" text-anchor="middle" x="93.96" y="-40.66" font-family="Helvetica,sans-Serif" font-size="10.50">Raw Event</text>
<text xml:space="preserve" text-anchor="middle" x="93.96" y="-28.66" font-family="Helvetica,sans-Serif" font-size="10.50">title, description, location, start, url</text>
</g>
<!-- FE -->
<g id="node2" class="node">
<title>FE</title>
<path fill="#f8c471" stroke="#d68910" stroke-width="1.2" d="M434.09,-65.28C434.09,-65.28 249.92,-65.28 249.92,-65.28 243.92,-65.28 237.92,-59.28 237.92,-53.28 237.92,-53.28 237.92,-24 237.92,-24 237.92,-18 243.92,-12 249.92,-12 249.92,-12 434.09,-12 434.09,-12 440.09,-12 446.09,-18 446.09,-24 446.09,-24 446.09,-53.28 446.09,-53.28 446.09,-59.28 440.09,-65.28 434.09,-65.28"/>
<text xml:space="preserve" text-anchor="middle" x="342.01" y="-46.66" font-family="Helvetica,sans-Serif" font-size="10.50">Feature Engineering</text>
<text xml:space="preserve" text-anchor="middle" x="342.01" y="-34.66" font-family="Helvetica,sans-Serif" font-size="10.50">build_features()</text>
<text xml:space="preserve" text-anchor="middle" x="342.01" y="-22.66" font-family="Helvetica,sans-Serif" font-size="10.50">title + description + location + category</text>
</g>
<!-- RAW&#45;&gt;FE -->
<g id="edge1" class="edge">
<title>RAW&#45;&gt;FE</title>
<path fill="none" stroke="#5d6d7e" stroke-width="1.3" d="M188.33,-38.64C201.24,-38.64 214.61,-38.64 227.83,-38.64"/>
<polygon fill="#5d6d7e" stroke="#5d6d7e" stroke-width="1.3" points="227.45,-41.44 235.45,-38.64 227.45,-35.84 227.45,-41.44"/>
</g>
<!-- TF -->
<g id="node3" class="node">
<title>TF</title>
<path fill="#d2b4de" stroke="#8e44ad" stroke-width="1.2" d="M634.51,-71.28C634.51,-71.28 508.09,-71.28 508.09,-71.28 502.09,-71.28 496.09,-65.28 496.09,-59.28 496.09,-59.28 496.09,-18 496.09,-18 496.09,-12 502.09,-6 508.09,-6 508.09,-6 634.51,-6 634.51,-6 640.51,-6 646.51,-12 646.51,-18 646.51,-18 646.51,-59.28 646.51,-59.28 646.51,-65.28 640.51,-71.28 634.51,-71.28"/>
<text xml:space="preserve" text-anchor="middle" x="571.3" y="-52.66" font-family="Helvetica,sans-Serif" font-size="10.50">TF&#45;IDF Vectorization</text>
<text xml:space="preserve" text-anchor="middle" x="571.3" y="-40.66" font-family="Helvetica,sans-Serif" font-size="10.50">ngram_range=(1,2)</text>
<text xml:space="preserve" text-anchor="middle" x="571.3" y="-28.66" font-family="Helvetica,sans-Serif" font-size="10.50">min_df=2, max_df=0.9</text>
<text xml:space="preserve" text-anchor="middle" x="571.3" y="-16.66" font-family="Helvetica,sans-Serif" font-size="10.50">strip_accents, sublinear_tf</text>
</g>
<!-- FE&#45;&gt;TF -->
<g id="edge2" class="edge">
<title>FE&#45;&gt;TF</title>
<path fill="none" stroke="#5d6d7e" stroke-width="1.3" d="M446.68,-38.64C459.83,-38.64 473.17,-38.64 485.97,-38.64"/>
<polygon fill="#5d6d7e" stroke="#5d6d7e" stroke-width="1.3" points="485.68,-41.44 493.68,-38.64 485.68,-35.84 485.68,-41.44"/>
</g>
<!-- MAT -->
<g id="node4" class="node">
<title>MAT</title>
<path fill="#d6dbdf" stroke="#566573" stroke-width="1.2" d="M857.43,-65.28C857.43,-65.28 708.51,-65.28 708.51,-65.28 702.51,-65.28 696.51,-59.28 696.51,-53.28 696.51,-53.28 696.51,-24 696.51,-24 696.51,-18 702.51,-12 708.51,-12 708.51,-12 857.43,-12 857.43,-12 863.43,-12 869.43,-18 869.43,-24 869.43,-24 869.43,-53.28 869.43,-53.28 869.43,-59.28 863.43,-65.28 857.43,-65.28"/>
<text xml:space="preserve" text-anchor="middle" x="782.97" y="-46.66" font-family="Helvetica,sans-Serif" font-size="10.50">Sparse Feature Matrix</text>
<text xml:space="preserve" text-anchor="middle" x="782.97" y="-34.66" font-family="Helvetica,sans-Serif" font-size="10.50">shape: (N, about 1000)</text>
<text xml:space="preserve" text-anchor="middle" x="782.97" y="-22.66" font-family="Helvetica,sans-Serif" font-size="10.50">csr_matrix, density about 1&#45;2%</text>
</g>
<!-- TF&#45;&gt;MAT -->
<g id="edge3" class="edge">
<title>TF&#45;&gt;MAT</title>
<path fill="none" stroke="#5d6d7e" stroke-width="1.3" d="M647.11,-38.64C659.76,-38.64 673.05,-38.64 686.15,-38.64"/>
<polygon fill="#5d6d7e" stroke="#5d6d7e" stroke-width="1.3" points="686.15,-41.44 694.15,-38.64 686.15,-35.84 686.15,-41.44"/>
</g>
<!-- SVM -->
<g id="node5" class="node">
<title>SVM</title>
<path fill="#d2b4de" stroke="#8e44ad" stroke-width="1.2" d="M1090.1,-71.28C1090.1,-71.28 931.43,-71.28 931.43,-71.28 925.43,-71.28 919.43,-65.28 919.43,-59.28 919.43,-59.28 919.43,-18 919.43,-18 919.43,-12 925.43,-6 931.43,-6 931.43,-6 1090.1,-6 1090.1,-6 1096.1,-6 1102.1,-12 1102.1,-18 1102.1,-18 1102.1,-59.28 1102.1,-59.28 1102.1,-65.28 1096.1,-71.28 1090.1,-71.28"/>
<text xml:space="preserve" text-anchor="middle" x="1010.77" y="-52.66" font-family="Helvetica,sans-Serif" font-size="10.50">LinearSVC</text>
<text xml:space="preserve" text-anchor="middle" x="1010.77" y="-40.66" font-family="Helvetica,sans-Serif" font-size="10.50">class_weight=balanced</text>
<text xml:space="preserve" text-anchor="middle" x="1010.77" y="-28.66" font-family="Helvetica,sans-Serif" font-size="10.50">max_iter=1000</text>
<text xml:space="preserve" text-anchor="middle" x="1010.77" y="-16.66" font-family="Helvetica,sans-Serif" font-size="10.50">prediction 0/1 and decision score</text>
</g>
<!-- MAT&#45;&gt;SVM -->
<g id="edge4" class="edge">
<title>MAT&#45;&gt;SVM</title>
<path fill="none" stroke="#5d6d7e" stroke-width="1.3" d="M869.98,-38.64C882.79,-38.64 896.09,-38.64 909.17,-38.64"/>
<polygon fill="#5d6d7e" stroke="#5d6d7e" stroke-width="1.3" points="909.15,-41.44 917.15,-38.64 909.15,-35.84 909.15,-41.44"/>
</g>
<!-- CONF -->
<g id="node6" class="node">
<title>CONF</title>
<path fill="#d2b4de" stroke="#8e44ad" stroke-width="1.2" d="M1319.02,-65.28C1319.02,-65.28 1164.1,-65.28 1164.1,-65.28 1158.1,-65.28 1152.1,-59.28 1152.1,-53.28 1152.1,-53.28 1152.1,-24 1152.1,-24 1152.1,-18 1158.1,-12 1164.1,-12 1164.1,-12 1319.02,-12 1319.02,-12 1325.02,-12 1331.02,-18 1331.02,-24 1331.02,-24 1331.02,-53.28 1331.02,-53.28 1331.02,-59.28 1325.02,-65.28 1319.02,-65.28"/>
<text xml:space="preserve" text-anchor="middle" x="1241.56" y="-46.66" font-family="Helvetica,sans-Serif" font-size="10.50">Confidence Score</text>
<text xml:space="preserve" text-anchor="middle" x="1241.56" y="-34.66" font-family="Helvetica,sans-Serif" font-size="10.50">sigmoid(decision_function)</text>
<text xml:space="preserve" text-anchor="middle" x="1241.56" y="-22.66" font-family="Helvetica,sans-Serif" font-size="10.50">0.9 sure, 0.5 neutral, 0.1 unsure</text>
</g>
<!-- SVM&#45;&gt;CONF -->
<g id="edge5" class="edge">
<title>SVM&#45;&gt;CONF</title>
<path fill="none" stroke="#5d6d7e" stroke-width="1.3" d="M1102.52,-38.64C1115.44,-38.64 1128.79,-38.64 1141.86,-38.64"/>
<polygon fill="#5d6d7e" stroke="#5d6d7e" stroke-width="1.3" points="1141.82,-41.44 1149.82,-38.64 1141.82,-35.84 1141.82,-41.44"/>
</g>
<!-- ENR -->
<g id="node7" class="node">
<title>ENR</title>
<path fill="#82e0aa" stroke="#28b463" stroke-width="1.2" d="M1503.69,-77.28C1503.69,-77.28 1393.02,-77.28 1393.02,-77.28 1387.02,-77.28 1381.02,-71.28 1381.02,-65.28 1381.02,-65.28 1381.02,-12 1381.02,-12 1381.02,-6 1387.02,0 1393.02,0 1393.02,0 1503.69,0 1503.69,0 1509.69,0 1515.69,-6 1515.69,-12 1515.69,-12 1515.69,-65.28 1515.69,-65.28 1515.69,-71.28 1509.69,-77.28 1503.69,-77.28"/>
<text xml:space="preserve" text-anchor="middle" x="1448.36" y="-58.66" font-family="Helvetica,sans-Serif" font-size="10.50">Enriched Event</text>
<text xml:space="preserve" text-anchor="middle" x="1448.36" y="-46.66" font-family="Helvetica,sans-Serif" font-size="10.50">is_community</text>
<text xml:space="preserve" text-anchor="middle" x="1448.36" y="-34.66" font-family="Helvetica,sans-Serif" font-size="10.50">confidence</text>
<text xml:space="preserve" text-anchor="middle" x="1448.36" y="-22.66" font-family="Helvetica,sans-Serif" font-size="10.50">needs_review &lt; 0.75</text>
<text xml:space="preserve" text-anchor="middle" x="1448.36" y="-10.67" font-family="Helvetica,sans-Serif" font-size="10.50">tags, venue, image_url</text>
</g>
<!-- CONF&#45;&gt;ENR -->
<g id="edge6" class="edge">
<title>CONF&#45;&gt;ENR</title>
<path fill="none" stroke="#5d6d7e" stroke-width="1.3" d="M1331.49,-38.64C1344.65,-38.64 1358.12,-38.64 1370.99,-38.64"/>
<polygon fill="#5d6d7e" stroke="#5d6d7e" stroke-width="1.3" points="1370.74,-41.44 1378.74,-38.64 1370.74,-35.84 1370.74,-41.44"/>
</g>
</g>
</svg>
