<?xml version="1.0" encoding="UTF-8" standalone="no"?>
<!DOCTYPE svg PUBLIC "-//W3C//DTD SVG 1.1//EN"
 "http://www.w3.org/Graphics/SVG/1.1/DTD/svg11.dtd">
<!-- Generated by graphviz version 13.1.1 (20250719.2154)
 -->
<!-- Title: data_transformation Pages: 1 -->
<svg width="315pt" height="1014pt"
 viewBox="0.00 0.00 315.00 1014.00" xmlns="http://www.w3.org/2000/svg" xmlns:xlink="http://www.w3.org/1999/xlink">
<g id="graph0" class="graph" transform="scale(1 1) rotate(0) translate(32.4 981.84)">
<title>data_transformation</title>
<polygon fill="white" stroke="none" points="-32.4,32.4 -32.4,-981.84 282.21,-981.84 282.21,32.4 -32.4,32.4"/>
<!-- RAW -->
<g id="node1" class="node">
<title>RAW</title>
<path fill="#d6dbdf" stroke="#566573" stroke-width="1.3" d="M226.19,-949.44C226.19,-949.44 23.62,-949.44 23.62,-949.44 17.62,-949.44 11.62,-943.44 11.62,-937.44 11.62,-937.44 11.62,-905.52 11.62,-905.52 11.62,-899.52 17.62,-893.52 23.62,-893.52 23.62,-893.52 226.19,-893.52 226.19,-893.52 232.19,-893.52 238.19,-899.52 238.19,-905.52 238.19,-905.52 238.19,-937.44 238.19,-937.44 238.19,-943.44 232.19,-949.44 226.19,-949.44"/>
<text xml:space="preserve" text-anchor="middle" x="124.91" y="-924.61" font-family="Helvetica,sans-Serif" font-size="12.50">Raw Event</text>
<text xml:space="preserve" text-anchor="middle" x="124.91" y="-909.61" font-family="Helvetica,sans-Serif" font-size="12.50">title, description, location, start, url</text>
</g>
<!-- FE -->
<g id="node2" class="node">
<title>FE</title>
<path fill="#f8c471" stroke="#d68910" stroke-width="1.3" d="M237.81,-825.52C237.81,-825.52 12,-825.52 12,-825.52 6,-825.52 0,-819.52 0,-813.52 0,-813.52 0,-766.6 0,-766.6 0,-760.6 6,-754.6 12,-754.6 12,-754.6 237.81,-754.6 237.81,-754.6 243.81,-754.6 249.81,-760.6 249.81,-766.6 249.81,-766.6 249.81,-813.52 249.81,-813.52 249.81,-819.52 243.81,-825.52 237.81,-825.52"/>
<text xml:space="preserve" text-anchor="middle" x="124.91" y="-800.69" font-family="Helvetica,sans-Serif" font-size="12.50">Feature Engineering</text>
<text xml:space="preserve" text-anchor="middle" x="124.91" y="-785.69" font-family="Helvetica,sans-Serif" font-size="12.50">build_features()</text>
<text xml:space="preserve" text-anchor="middle" x="124.91" y="-770.69" font-family="Helvetica,sans-Serif" font-size="12.50">title + description + location + category</text>
</g>
<!-- RAW&#45;&gt;FE -->
<g id="edge1" class="edge">
<title>RAW&#45;&gt;FE</title>
<path fill="none" stroke="#5d6d7e" stroke-width="1.5" d="M124.91,-893.03C124.91,-876.73 124.91,-855.65 124.91,-836.89"/>
<polygon fill="#5d6d7e" stroke="#5d6d7e" stroke-width="1.5" points="128.06,-837.14 124.91,-828.14 121.76,-837.14 128.06,-837.14"/>
</g>
<!-- TF -->
<g id="node3" class="node">
<title>TF</title>
<path fill="#d2b4de" stroke="#8e44ad" stroke-width="1.3" d="M202.56,-686.6C202.56,-686.6 47.25,-686.6 47.25,-686.6 41.25,-686.6 35.25,-680.6 35.25,-674.6 35.25,-674.6 35.25,-612.68 35.25,-612.68 35.25,-606.68 41.25,-600.68 47.25,-600.68 47.25,-600.68 202.56,-600.68 202.56,-600.68 208.56,-600.68 214.56,-606.68 214.56,-612.68 214.56,-612.68 214.56,-674.6 214.56,-674.6 214.56,-680.6 208.56,-686.6 202.56,-686.6"/>
<text xml:space="preserve" text-anchor="middle" x="124.91" y="-661.77" font-family="Helvetica,sans-Serif" font-size="12.50">TF&#45;IDF Vectorization</text>
<text xml:space="preserve" text-anchor="middle" x="124.91" y="-646.77" font-family="Helvetica,sans-Serif" font-size="12.50">ngram_range=(1,2)</text>
<text xml:space="preserve" text-anchor="middle" x="124.91" y="-631.77" font-family="Helvetica,sans-Serif" font-size="12.50">min_df=2, max_df=0.9</text>
<text xml:space="preserve" text-anchor="middle" x="124.91" y="-616.77" font-family="Helvetica,sans-Serif" font-size="12.50">strip_accents, sublinear_tf</text>
</g>
<!-- FE&#45;&gt;TF -->
<g id="edge2" class="edge">
<title>FE&#45;&gt;TF</title>
<path fill="none" stroke="#5d6d7e" stroke-width="1.5" d="M124.91,-754.1C124.91,-737.29 124.91,-716.77 124.91,-698.07"/>
<polygon fill="#5d6d7e" stroke="#5d6d7e" stroke-width="1.5" points="128.06,-698.27 124.91,-689.27 121.76,-698.27 128.06,-698.27"/>
</g>
<!-- MAT -->
<g id="node4" class="node">
<title>MAT</title>
<path fill="#d6dbdf" stroke="#566573" stroke-width="1.3" d="M216.06,-532.68C216.06,-532.68 33.75,-532.68 33.75,-532.68 27.75,-532.68 21.75,-526.68 21.75,-520.68 21.75,-520.68 21.75,-473.76 21.75,-473.76 21.75,-467.76 27.75,-461.76 33.75,-461.76 33.75,-461.76 216.06,-461.76 216.06,-461.76 222.06,-461.76 228.06,-467.76 228.06,-473.76 228.06,-473.76 228.06,-520.68 228.06,-520.68 228.06,-526.68 222.06,-532.68 216.06,-532.68"/>
<text xml:space="preserve" text-anchor="middle" x="124.91" y="-507.85" font-family="Helvetica,sans-Serif" font-size="12.50">Sparse Feature Matrix</text>
<text xml:space="preserve" text-anchor="middle" x="124.91" y="-492.85" font-family="Helvetica,sans-Serif" font-size="12.50">shape: (N, about 1000)</text>
<text xml:space="preserve" text-anchor="middle" x="124.91" y="-477.85" font-family="Helvetica,sans-Serif" font-size="12.50">csr_matrix, density about 1&#45;2%</text>
</g>
<!-- TF&#45;&gt;MAT -->
<g id="edge3" class="edge">
<title>TF&#45;&gt;MAT</title>
<path fill="none" stroke="#5d6d7e" stroke-width="1.5" d="M124.91,-600.09C124.91,-582.53 124.91,-562.15 124.91,-544.24"/>
<polygon fill="#5d6d7e" stroke="#5d6d7e" stroke-width="1.5" points="128.06,-544.45 124.91,-535.45 121.76,-544.45 128.06,-544.45"/>
</g>
<!-- SVM -->
<g id="node5" class="node">
<title>SVM</title>
<path fill="#d2b4de" stroke="#8e44ad" stroke-width="1.3" d="M220.94,-393.76C220.94,-393.76 28.88,-393.76 28.88,-393.76 22.88,-393.76 16.88,-387.76 16.88,-381.76 16.88,-381.76 16.88,-319.84 16.88,-319.84 16.88,-313.84 22.88,-307.84 28.88,-307.84 28.88,-307.84 220.94,-307.84 220.94,-307.84 226.94,-307.84 232.94,-313.84 232.94,-319.84 232.94,-319.84 232.94,-381.76 232.94,-381.76 232.94,-387.76 226.94,-393.76 220.94,-393.76"/>
<text xml:space="preserve" text-anchor="middle" x="124.91" y="-368.93" font-family="Helvetica,sans-Serif" font-size="12.50">LinearSVC</text>
<text xml:space="preserve" text-anchor="middle" x="124.91" y="-353.93" font-family="Helvetica,sans-Serif" font-size="12.50">class_weight=balanced</text>
<text xml:space="preserve" text-anchor="middle" x="124.91" y="-338.93" font-family="Helvetica,sans-Serif" font-size="12.50">max_iter=1000</text>
<text xml:space="preserve" text-anchor="middle" x="124.91" y="-323.93" font-family="Helvetica,sans-Serif" font-size="12.50">prediction 0/1 and decision score</text>
</g>
<!-- MAT&#45;&gt;SVM -->
<g id="edge4" class="edge">
<title>MAT&#45;&gt;SVM</title>
<path fill="none" stroke="#5d6d7e" stroke-width="1.5" d="M124.91,-461.26C124.91,-444.45 124.91,-423.93 124.91,-405.23"/>
<polygon fill="#5d6d7e" stroke="#5d6d7e" stroke-width="1.5" points="128.06,-405.43 124.91,-396.43 121.76,-405.43 128.06,-405.43"/>
</g>
<!-- CONF -->
<g id="node6" class="node">
<title>CONF</title>
<path fill="#d2b4de" stroke="#8e44ad" stroke-width="1.3" d="M219.06,-239.84C219.06,-239.84 30.75,-239.84 30.75,-239.84 24.75,-239.84 18.75,-233.84 18.75,-227.84 18.75,-227.84 18.75,-180.92 18.75,-180.92 18.75,-174.92 24.75,-168.92 30.75,-168.92 30.75,-168.92 219.06,-168.92 219.06,-168.92 225.06,-168.92 231.06,-174.92 231.06,-180.92 231.06,-180.92 231.06,-227.84 231.06,-227.84 231.06,-233.84 225.06,-239.84 219.06,-239.84"/>
<text xml:space="preserve" text-anchor="middle" x="124.91" y="-215.01" font-family="Helvetica,sans-Serif" font-size="12.50">Confidence Score</text>
<text xml:space="preserve" text-anchor="middle" x="124.91" y="-200.01" font-family="Helvetica,sans-Serif" font-size="12.50">sigmoid(decision_function)</text>
<text xml:space="preserve" text-anchor="middle" x="124.91" y="-185.01" font-family="Helvetica,sans-Serif" font-size="12.50">0.9 sure, 0.5 neutral, 0.1 unsure</text>
</g>
<!-- SVM&#45;&gt;CONF -->
<g id="edge5" class="edge">
<title>SVM&#45;&gt;CONF</title>
<path fill="none" stroke="#5d6d7e" stroke-width="1.5" d="M124.91,-307.25C124.91,-289.69 124.91,-269.31 124.91,-251.4"/>
<polygon fill="#5d6d7e" stroke="#5d6d7e" stroke-width="1.5" points="128.06,-251.61 124.91,-242.61 121.76,-251.61 128.06,-251.61"/>
</g>
<!-- ENR -->
<g id="node7" class="node">
<title>ENR</title>
<path fill="#82e0aa" stroke="#28b463" stroke-width="1.3" d="M193.19,-100.92C193.19,-100.92 56.62,-100.92 56.62,-100.92 50.62,-100.92 44.62,-94.92 44.62,-88.92 44.62,-88.92 44.62,-12 44.62,-12 44.62,-6 50.62,0 56.62,0 56.62,0 193.19,0 193.19,0 199.19,0 205.19,-6 205.19,-12 205.19,-12 205.19,-88.92 205.19,-88.92 205.19,-94.92 199.19,-100.92 193.19,-100.92"/>
<text xml:space="preserve" text-anchor="middle" x="124.91" y="-76.09" font-family="Helvetica,sans-Serif" font-size="12.50">Enriched Event</text>
<text xml:space="preserve" text-anchor="middle" x="124.91" y="-61.09" font-family="Helvetica,sans-Serif" font-size="12.50">is_community</text>
<text xml:space="preserve" text-anchor="middle" x="124.91" y="-46.09" font-family="Helvetica,sans-Serif" font-size="12.50">confidence</text>
<text xml:space="preserve" text-anchor="middle" x="124.91" y="-31.09" font-family="Helvetica,sans-Serif" font-size="12.50">needs_review &lt; 0.75</text>
<text xml:space="preserve" text-anchor="middle" x="124.91" y="-16.09" font-family="Helvetica,sans-Serif" font-size="12.50">tags, venue, image_url</text>
</g>
<!-- CONF&#45;&gt;ENR -->
<g id="edge6" class="edge">
<title>CONF&#45;&gt;ENR</title>
<path fill="none" stroke="#5d6d7e" stroke-width="1.5" d="M124.91,-168.53C124.91,-151.9 124.91,-131.52 124.91,-112.45"/>
<polygon fill="#5d6d7e" stroke="#5d6d7e" stroke-width="1.5" points="128.06,-112.68 124.91,-103.68 121.76,-112.68 128.06,-112.68"/>
</g>
</g>
</svg>
