<?xml version="1.0" encoding="UTF-8" standalone="no"?>
<!DOCTYPE svg PUBLIC "-//W3C//DTD SVG 1.1//EN"
 "http://www.w3.org/Graphics/SVG/1.1/DTD/svg11.dtd">
<!-- Generated by graphviz version 13.1.1 (20250719.2154)
 -->
<!-- Title: feedback_loop Pages: 1 -->
<svg width="950pt" height="159pt"
 viewBox="0.00 0.00 950.00 159.00" xmlns="http://www.w3.org/2000/svg" xmlns:xlink="http://www.w3.org/1999/xlink">
<g id="graph0" class="graph" transform="scale(1 1) rotate(0) translate(21.6 137.04)">
<title>feedback_loop</title>
<polygon fill="white" stroke="none" points="-21.6,21.6 -21.6,-137.04 928.84,-137.04 928.84,21.6 -21.6,21.6"/>
<!-- OUT -->
<g id="node1" class="node">
<title>OUT</title>
<path fill="#82e0aa" stroke="#28b463" stroke-width="1.2" d="M131.79,-62.91C131.79,-65.96 102.25,-68.44 65.89,-68.44 29.54,-68.44 0,-65.96 0,-62.91 0,-62.91 0,-13.09 0,-13.09 0,-10.04 29.54,-7.56 65.89,-7.56 102.25,-7.56 131.79,-10.04 131.79,-13.09 131.79,-13.09 131.79,-62.91 131.79,-62.91"/>
<path fill="none" stroke="#28b463" stroke-width="1.2" d="M131.79,-62.91C131.79,-59.85 102.25,-57.37 65.89,-57.37 29.54,-57.37 0,-59.85 0,-62.91"/>
<text xml:space="preserve" text-anchor="middle" x="65.89" y="-41.05" font-family="Helvetica,sans-Serif" font-size="11.00">output/pipeline</text>
<text xml:space="preserve" text-anchor="middle" x="65.89" y="-27.55" font-family="Helvetica,sans-Serif" font-size="11.00">calendar_upload_*.csv</text>
</g>
<!-- REVIEW -->
<g id="node2" class="node">
<title>REVIEW</title>
<path fill="#d6dbdf" stroke="#566573" stroke-width="1.2" d="M270.83,-103.14C270.83,-103.14 193.79,-103.14 193.79,-103.14 187.79,-103.14 181.79,-97.14 181.79,-91.14 181.79,-91.14 181.79,-70.86 181.79,-70.86 181.79,-64.86 187.79,-58.86 193.79,-58.86 193.79,-58.86 270.83,-58.86 270.83,-58.86 276.83,-58.86 282.83,-64.86 282.83,-70.86 282.83,-70.86 282.83,-91.14 282.83,-91.14 282.83,-97.14 276.83,-103.14 270.83,-103.14"/>
<text xml:space="preserve" text-anchor="middle" x="232.31" y="-84.05" font-family="Helvetica,sans-Serif" font-size="11.00">Manual Review</text>
<text xml:space="preserve" text-anchor="middle" x="232.31" y="-70.55" font-family="Helvetica,sans-Serif" font-size="11.00">label corrections</text>
</g>
<!-- OUT&#45;&gt;REVIEW -->
<g id="edge1" class="edge">
<title>OUT&#45;&gt;REVIEW</title>
<path fill="none" stroke="#5d6d7e" stroke-width="1.3" d="M132.35,-55.12C145.34,-58.52 158.91,-62.06 171.69,-65.41"/>
<polygon fill="#5d6d7e" stroke="#5d6d7e" stroke-width="1.3" points="170.93,-68.1 179.38,-67.42 172.35,-62.69 170.93,-68.1"/>
</g>
<!-- LABELED -->
<g id="node3" class="node">
<title>LABELED</title>
<path fill="#82e0aa" stroke="#28b463" stroke-width="1.2" d="M415.12,-109.91C415.12,-112.96 396.68,-115.44 373.97,-115.44 351.27,-115.44 332.83,-112.96 332.83,-109.91 332.83,-109.91 332.83,-60.09 332.83,-60.09 332.83,-57.04 351.27,-54.56 373.97,-54.56 396.68,-54.56 415.12,-57.04 415.12,-60.09 415.12,-60.09 415.12,-109.91 415.12,-109.91"/>
<path fill="none" stroke="#28b463" stroke-width="1.2" d="M415.12,-109.91C415.12,-106.85 396.68,-104.37 373.97,-104.37 351.27,-104.37 332.83,-106.85 332.83,-109.91"/>
<text xml:space="preserve" text-anchor="middle" x="373.97" y="-88.05" font-family="Helvetica,sans-Serif" font-size="11.00">data/labeled</text>
<text xml:space="preserve" text-anchor="middle" x="373.97" y="-74.55" font-family="Helvetica,sans-Serif" font-size="11.00">training data</text>
</g>
<!-- REVIEW&#45;&gt;LABELED -->
<g id="edge2" class="edge">
<title>REVIEW&#45;&gt;LABELED</title>
<path fill="none" stroke="#5d6d7e" stroke-width="1.3" d="M283.34,-82.43C296.19,-82.8 310.01,-83.2 322.86,-83.56"/>
<polygon fill="#5d6d7e" stroke="#5d6d7e" stroke-width="1.3" points="322.43,-86.35 330.5,-83.78 322.59,-80.76 322.43,-86.35"/>
</g>
<!-- RETRAIN -->
<g id="node4" class="node">
<title>RETRAIN</title>
<path fill="#af7ac5" stroke="#8e44ad" stroke-width="1.2" d="M590.91,-107.14C590.91,-107.14 477.12,-107.14 477.12,-107.14 471.12,-107.14 465.12,-101.14 465.12,-95.14 465.12,-95.14 465.12,-74.86 465.12,-74.86 465.12,-68.86 471.12,-62.86 477.12,-62.86 477.12,-62.86 590.91,-62.86 590.91,-62.86 596.91,-62.86 602.91,-68.86 602.91,-74.86 602.91,-74.86 602.91,-95.14 602.91,-95.14 602.91,-101.14 596.91,-107.14 590.91,-107.14"/>
<text xml:space="preserve" text-anchor="middle" x="534.01" y="-88.05" font-family="Helvetica,sans-Serif" font-size="11.00" fill="white">auto_label_and_train.py</text>
<text xml:space="preserve" text-anchor="middle" x="534.01" y="-74.55" font-family="Helvetica,sans-Serif" font-size="11.00" fill="white">retrain model</text>
</g>
<!-- LABELED&#45;&gt;RETRAIN -->
<g id="edge3" class="edge">
<title>LABELED&#45;&gt;RETRAIN</title>
<path fill="none" stroke="#5d6d7e" stroke-width="1.3" d="M415.67,-85C427.67,-85 441.22,-85 454.74,-85"/>
<polygon fill="#5d6d7e" stroke="#5d6d7e" stroke-width="1.3" points="454.59,-87.8 462.59,-85 454.59,-82.2 454.59,-87.8"/>
</g>
<!-- ART -->
<g id="node5" class="node">
<title>ART</title>
<path fill="#82e0aa" stroke="#28b463" stroke-width="1.2" d="M747.2,-109.91C747.2,-112.96 726.07,-115.44 700.05,-115.44 674.04,-115.44 652.91,-112.96 652.91,-109.91 652.91,-109.91 652.91,-60.09 652.91,-60.09 652.91,-57.04 674.04,-54.56 700.05,-54.56 726.07,-54.56 747.2,-57.04 747.2,-60.09 747.2,-60.09 747.2,-109.91 747.2,-109.91"/>
<path fill="none" stroke="#28b463" stroke-width="1.2" d="M747.2,-109.91C747.2,-106.85 726.07,-104.37 700.05,-104.37 674.04,-104.37 652.91,-106.85 652.91,-109.91"/>
<text xml:space="preserve" text-anchor="middle" x="700.05" y="-88.05" font-family="Helvetica,sans-Serif" font-size="11.00">data/artifacts</text>
<text xml:space="preserve" text-anchor="middle" x="700.05" y="-74.55" font-family="Helvetica,sans-Serif" font-size="11.00">updated model</text>
</g>
<!-- RETRAIN&#45;&gt;ART -->
<g id="edge4" class="edge">
<title>RETRAIN&#45;&gt;ART</title>
<path fill="none" stroke="#5d6d7e" stroke-width="1.3" d="M603.16,-85C616.22,-85 629.76,-85 642.41,-85"/>
<polygon fill="#5d6d7e" stroke="#5d6d7e" stroke-width="1.3" points="642.36,-87.8 650.36,-85 642.36,-82.2 642.36,-87.8"/>
</g>
<!-- PIPE -->
<g id="node6" class="node">
<title>PIPE</title>
<path fill="#f8c471" stroke="#d68910" stroke-width="1.2" d="M895.24,-60C895.24,-60 809.2,-60 809.2,-60 803.2,-60 797.2,-54 797.2,-48 797.2,-48 797.2,-36 797.2,-36 797.2,-30 803.2,-24 809.2,-24 809.2,-24 895.24,-24 895.24,-24 901.24,-24 907.24,-30 907.24,-36 907.24,-36 907.24,-48 907.24,-48 907.24,-54 901.24,-60 895.24,-60"/>
<text xml:space="preserve" text-anchor="middle" x="852.22" y="-38.3" font-family="Helvetica,sans-Serif" font-size="11.00">Next Pipeline Run</text>
</g>
<!-- ART&#45;&gt;PIPE -->
<g id="edge5" class="edge">
<title>ART&#45;&gt;PIPE</title>
<path fill="none" stroke="#5d6d7e" stroke-width="1.3" d="M747.74,-71.63C760.22,-68.06 773.91,-64.14 787.14,-60.35"/>
<polygon fill="#5d6d7e" stroke="#5d6d7e" stroke-width="1.3" points="787.86,-63.06 794.78,-58.16 786.32,-57.67 787.86,-63.06"/>
</g>
<!-- PIPE&#45;&gt;OUT -->
<g id="edge6" class="edge">
<title>PIPE&#45;&gt;OUT</title>
<path fill="none" stroke="#5d6d7e" stroke-width="1.3" d="M796.67,-30.3C733.88,-17.87 627.5,0 535.01,0 372.97,0 372.97,0 372.97,0 293.68,0 203.71,-12.71 141.95,-23.43"/>
<polygon fill="#5d6d7e" stroke="#5d6d7e" stroke-width="1.3" points="141.61,-20.65 134.22,-24.79 142.58,-26.16 141.61,-20.65"/>
</g>
</g>
</svg>
