<?xml version="1.0" encoding="UTF-8" standalone="no"?>
<!DOCTYPE svg PUBLIC "-//W3C//DTD SVG 1.1//EN"
 "http://www.w3.org/Graphics/SVG/1.1/DTD/svg11.dtd">
<!-- Generated by graphviz version 13.1.1 (20250719.2154)
 -->
<!-- Title: script_dependencies Pages: 1 -->
<svg width="617pt" height="722pt"
 viewBox="0.00 0.00 617.00 722.00" xmlns="http://www.w3.org/2000/svg" xmlns:xlink="http://www.w3.org/1999/xlink">
<g id="graph0" class="graph" transform="scale(1 1) rotate(0) translate(21.6 700.6)">
<title>script_dependencies</title>
<polygon fill="white" stroke="none" points="-21.6,21.6 -21.6,-700.6 595.08,-700.6 595.08,21.6 -21.6,21.6"/>
<g id="clust1" class="cluster">
<title>cluster_root</title>
<path fill="#f4fafe" stroke="#d6eaf8" d="M20,-160C20,-160 157.41,-160 157.41,-160 163.41,-160 169.41,-166 169.41,-172 169.41,-172 169.41,-428 169.41,-428 169.41,-434 163.41,-440 157.41,-440 157.41,-440 20,-440 20,-440 14,-440 8,-434 8,-428 8,-428 8,-172 8,-172 8,-166 14,-160 20,-160"/>
<text xml:space="preserve" text-anchor="middle" x="88.71" y="-422.7" font-family="Helvetica,sans-Serif" font-size="14.00">scripts entry points</text>
</g>
<g id="clust2" class="cluster">
<title>cluster_pipeline</title>
<path fill="#fff8ed" stroke="#fdebd0" d="M240.66,-160C240.66,-160 350.32,-160 350.32,-160 356.32,-160 362.32,-166 362.32,-172 362.32,-172 362.32,-360 362.32,-360 362.32,-366 356.32,-372 350.32,-372 350.32,-372 240.66,-372 240.66,-372 234.66,-372 228.66,-366 228.66,-360 228.66,-360 228.66,-172 228.66,-172 228.66,-166 234.66,-160 240.66,-160"/>
<text xml:space="preserve" text-anchor="middle" x="295.49" y="-354.7" font-family="Helvetica,sans-Serif" font-size="14.00">scripts/pipeline</text>
</g>
<g id="clust3" class="cluster">
<title>cluster_ml</title>
<path fill="#fbf5fd" stroke="#e8daef" d="M32.38,-8C32.38,-8 348.44,-8 348.44,-8 354.44,-8 360.44,-14 360.44,-20 360.44,-20 360.44,-140 360.44,-140 360.44,-146 354.44,-152 348.44,-152 348.44,-152 32.38,-152 32.38,-152 26.38,-152 20.38,-146 20.38,-140 20.38,-140 20.38,-20 20.38,-20 20.38,-14 26.38,-8 32.38,-8"/>
<text xml:space="preserve" text-anchor="middle" x="190.41" y="-134.7" font-family="Helvetica,sans-Serif" font-size="14.00">scripts/ml</text>
</g>
<g id="clust4" class="cluster">
<title>cluster_tooling</title>
<path fill="#f8f9f9" stroke="#d6dbdf" d="M454.2,-199C454.2,-199 548.86,-199 548.86,-199 554.86,-199 560.86,-205 560.86,-211 560.86,-211 560.86,-535 560.86,-535 560.86,-541 554.86,-547 548.86,-547 548.86,-547 454.2,-547 454.2,-547 448.2,-547 442.2,-541 442.2,-535 442.2,-535 442.2,-211 442.2,-211 442.2,-205 448.2,-199 454.2,-199"/>
<text xml:space="preserve" text-anchor="middle" x="501.53" y="-529.7" font-family="Helvetica,sans-Serif" font-size="14.00">scripts/tooling</text>
</g>
<g id="clust5" class="cluster">
<title>cluster_scrapers</title>
<path fill="#f4fdf7" stroke="#d5f5e3" d="M226.41,-459C226.41,-459 364.57,-459 364.57,-459 370.57,-459 376.57,-465 376.57,-471 376.57,-471 376.57,-659 376.57,-659 376.57,-665 370.57,-671 364.57,-671 364.57,-671 226.41,-671 226.41,-671 220.41,-671 214.41,-665 214.41,-659 214.41,-659 214.41,-471 214.41,-471 214.41,-465 220.41,-459 226.41,-459"/>
<text xml:space="preserve" text-anchor="middle" x="295.49" y="-653.7" font-family="Helvetica,sans-Serif" font-size="14.00">scripts/scrapers</text>
</g>
<!-- AP -->
<g id="node1" class="node">
<title>AP</title>
<path fill="#5dade2" stroke="#2e86c1" stroke-width="1.1" d="M140.79,-340C140.79,-340 36.63,-340 36.63,-340 30.63,-340 24.63,-334 24.63,-328 24.63,-328 24.63,-316 24.63,-316 24.63,-310 30.63,-304 36.63,-304 36.63,-304 140.79,-304 140.79,-304 146.79,-304 152.79,-310 152.79,-316 152.79,-316 152.79,-328 152.79,-328 152.79,-334 146.79,-340 140.79,-340"/>
<text xml:space="preserve" text-anchor="middle" x="88.71" y="-318.02" font-family="Helvetica,sans-Serif" font-size="10.50" fill="white">automated_pipeline.py</text>
</g>
<!-- AP2 -->
<g id="node5" class="node">
<title>AP2</title>
<path fill="#f8c471" stroke="#d68910" stroke-width="1.1" d="M340.44,-340C340.44,-340 250.54,-340 250.54,-340 244.54,-340 238.54,-334 238.54,-328 238.54,-328 238.54,-316 238.54,-316 238.54,-310 244.54,-304 250.54,-304 250.54,-304 340.44,-304 340.44,-304 346.44,-304 352.44,-310 352.44,-316 352.44,-316 352.44,-328 352.44,-328 352.44,-334 346.44,-340 340.44,-340"/>
<text xml:space="preserve" text-anchor="middle" x="295.49" y="-318.02" font-family="Helvetica,sans-Serif" font-size="10.50">automated_pipeline</text>
</g>
<!-- AP&#45;&gt;AP2 -->
<g id="edge1" class="edge">
<title>AP&#45;&gt;AP2</title>
<path fill="none" stroke="#5d6d7e" stroke-width="1.2" d="M153.1,-322C176.95,-322 204.11,-322 228.22,-322"/>
<polygon fill="#5d6d7e" stroke="#5d6d7e" stroke-width="1.2" points="228.17,-324.8 236.17,-322 228.17,-319.2 228.17,-324.8"/>
</g>
<!-- WU -->
<g id="node2" class="node">
<title>WU</title>
<path fill="#5dade2" stroke="#2e86c1" stroke-width="1.1" d="M142.29,-272C142.29,-272 35.13,-272 35.13,-272 29.13,-272 23.13,-266 23.13,-260 23.13,-260 23.13,-248 23.13,-248 23.13,-242 29.13,-236 35.13,-236 35.13,-236 142.29,-236 142.29,-236 148.29,-236 154.29,-242 154.29,-248 154.29,-248 154.29,-260 154.29,-260 154.29,-266 148.29,-272 142.29,-272"/>
<text xml:space="preserve" text-anchor="middle" x="88.71" y="-250.03" font-family="Helvetica,sans-Serif" font-size="10.50" fill="white">wordpress_uploader.py</text>
</g>
<!-- WU2 -->
<g id="node6" class="node">
<title>WU2</title>
<path fill="#f8c471" stroke="#d68910" stroke-width="1.1" d="M342.32,-272C342.32,-272 248.66,-272 248.66,-272 242.66,-272 236.66,-266 236.66,-260 236.66,-260 236.66,-248 236.66,-248 236.66,-242 242.66,-236 248.66,-236 248.66,-236 342.32,-236 342.32,-236 348.32,-236 354.32,-242 354.32,-248 354.32,-248 354.32,-260 354.32,-260 354.32,-266 348.32,-272 342.32,-272"/>
<text xml:space="preserve" text-anchor="middle" x="295.49" y="-250.03" font-family="Helvetica,sans-Serif" font-size="10.50">wordpress_uploader</text>
</g>
<!-- WU&#45;&gt;WU2 -->
<g id="edge2" class="edge">
<title>WU&#45;&gt;WU2</title>
<path fill="none" stroke="#5d6d7e" stroke-width="1.2" d="M154.78,-254C177.63,-254 203.36,-254 226.45,-254"/>
<polygon fill="#5d6d7e" stroke="#5d6d7e" stroke-width="1.2" points="226.35,-256.8 234.35,-254 226.35,-251.2 226.35,-256.8"/>
</g>
<!-- HC -->
<g id="node3" class="node">
<title>HC</title>
<path fill="#5dade2" stroke="#2e86c1" stroke-width="1.1" d="M125.41,-204C125.41,-204 52,-204 52,-204 46,-204 40,-198 40,-192 40,-192 40,-180 40,-180 40,-174 46,-168 52,-168 52,-168 125.41,-168 125.41,-168 131.41,-168 137.41,-174 137.41,-180 137.41,-180 137.41,-192 137.41,-192 137.41,-198 131.41,-204 125.41,-204"/>
<text xml:space="preserve" text-anchor="middle" x="88.71" y="-182.03" font-family="Helvetica,sans-Serif" font-size="10.50" fill="white">health_check.py</text>
</g>
<!-- HC2 -->
<g id="node7" class="node">
<title>HC2</title>
<path fill="#f8c471" stroke="#d68910" stroke-width="1.1" d="M325.07,-204C325.07,-204 265.91,-204 265.91,-204 259.91,-204 253.91,-198 253.91,-192 253.91,-192 253.91,-180 253.91,-180 253.91,-174 259.91,-168 265.91,-168 265.91,-168 325.07,-168 325.07,-168 331.07,-168 337.07,-174 337.07,-180 337.07,-180 337.07,-192 337.07,-192 337.07,-198 331.07,-204 325.07,-204"/>
<text xml:space="preserve" text-anchor="middle" x="295.49" y="-182.03" font-family="Helvetica,sans-Serif" font-size="10.50">health_check</text>
</g>
<!-- HC&#45;&gt;HC2 -->
<g id="edge3" class="edge">
<title>HC&#45;&gt;HC2</title>
<path fill="none" stroke="#5d6d7e" stroke-width="1.2" d="M137.72,-186C169.64,-186 211.51,-186 243.94,-186"/>
<polygon fill="#5d6d7e" stroke="#5d6d7e" stroke-width="1.2" points="243.87,-188.8 251.87,-186 243.87,-183.2 243.87,-188.8"/>
</g>
<!-- MS -->
<g id="node4" class="node">
<title>MS</title>
<path fill="#5dade2" stroke="#2e86c1" stroke-width="1.1" d="M149.41,-408C149.41,-408 28,-408 28,-408 22,-408 16,-402 16,-396 16,-396 16,-384 16,-384 16,-378 22,-372 28,-372 28,-372 149.41,-372 149.41,-372 155.41,-372 161.41,-378 161.41,-384 161.41,-384 161.41,-396 161.41,-396 161.41,-402 155.41,-408 149.41,-408"/>
<text xml:space="preserve" text-anchor="middle" x="88.71" y="-386.02" font-family="Helvetica,sans-Serif" font-size="10.50" fill="white">multi_calendar_scraper.py</text>
</g>
<!-- MC -->
<g id="node18" class="node">
<title>MC</title>
<path fill="#58d68d" stroke="#28b463" stroke-width="1.1" d="M349.44,-639C349.44,-639 241.54,-639 241.54,-639 235.54,-639 229.54,-633 229.54,-627 229.54,-627 229.54,-615 229.54,-615 229.54,-609 235.54,-603 241.54,-603 241.54,-603 349.44,-603 349.44,-603 355.44,-603 361.44,-609 361.44,-615 361.44,-615 361.44,-627 361.44,-627 361.44,-633 355.44,-639 349.44,-639"/>
<text xml:space="preserve" text-anchor="middle" x="295.49" y="-617.02" font-family="Helvetica,sans-Serif" font-size="10.50" fill="white">multi_calendar_scraper</text>
</g>
<!-- MS&#45;&gt;MC -->
<g id="edge4" class="edge">
<title>MS&#45;&gt;MC</title>
<path fill="none" stroke="#5d6d7e" stroke-width="1.2" d="M96.84,-408.34C112.54,-446.55 153.63,-535.39 214.41,-587 219.21,-591.07 224.56,-594.72 230.17,-597.97"/>
<polygon fill="#5d6d7e" stroke="#5d6d7e" stroke-width="1.2" points="228.55,-600.28 236.92,-601.6 231.2,-595.35 228.55,-600.28"/>
</g>
<!-- EL -->
<g id="node11" class="node">
<title>EL</title>
<path fill="#aab7b8" stroke="#7b8a8b" stroke-width="1.1" d="M526.23,-243C526.23,-243 476.82,-243 476.82,-243 470.82,-243 464.82,-237 464.82,-231 464.82,-231 464.82,-219 464.82,-219 464.82,-213 470.82,-207 476.82,-207 476.82,-207 526.23,-207 526.23,-207 532.23,-207 538.23,-213 538.23,-219 538.23,-219 538.23,-231 538.23,-231 538.23,-237 532.23,-243 526.23,-243"/>
<text xml:space="preserve" text-anchor="middle" x="501.53" y="-221.03" font-family="Helvetica,sans-Serif" font-size="10.50" fill="white">env_loader</text>
</g>
<!-- AP2&#45;&gt;EL -->
<g id="edge5" class="edge">
<title>AP2&#45;&gt;EL</title>
<path fill="none" stroke="#5d6d7e" stroke-width="1.2" d="M342.16,-303.53C353.5,-298.7 365.56,-293.33 376.57,-288 400.74,-276.29 405.68,-271.25 429.57,-259 438.05,-254.65 447.17,-250.15 455.96,-245.9"/>
<polygon fill="#5d6d7e" stroke="#5d6d7e" stroke-width="1.2" points="456.97,-248.52 462.97,-242.54 454.55,-243.48 456.97,-248.52"/>
</g>
<!-- LG -->
<g id="node12" class="node">
<title>LG</title>
<path fill="#aab7b8" stroke="#7b8a8b" stroke-width="1.1" d="M516.53,-447C516.53,-447 486.53,-447 486.53,-447 480.53,-447 474.53,-441 474.53,-435 474.53,-435 474.53,-423 474.53,-423 474.53,-417 480.53,-411 486.53,-411 486.53,-411 516.53,-411 516.53,-411 522.53,-411 528.53,-417 528.53,-423 528.53,-423 528.53,-435 528.53,-435 528.53,-441 522.53,-447 516.53,-447"/>
<text xml:space="preserve" text-anchor="middle" x="501.53" y="-425.02" font-family="Helvetica,sans-Serif" font-size="10.50" fill="white">logger</text>
</g>
<!-- AP2&#45;&gt;LG -->
<g id="edge6" class="edge">
<title>AP2&#45;&gt;LG</title>
<path fill="none" stroke="#5d6d7e" stroke-width="1.2" d="M329.04,-340.5C355.82,-355.57 394.87,-377.19 429.57,-395 441.08,-400.91 453.78,-407.1 465.22,-412.55"/>
<polygon fill="#5d6d7e" stroke="#5d6d7e" stroke-width="1.2" points="464,-415.07 472.43,-415.97 466.4,-410.01 464,-415.07"/>
</g>
<!-- EN -->
<g id="node13" class="node">
<title>EN</title>
<path fill="#aab7b8" stroke="#7b8a8b" stroke-width="1.1" d="M540.86,-515C540.86,-515 462.2,-515 462.2,-515 456.2,-515 450.2,-509 450.2,-503 450.2,-503 450.2,-491 450.2,-491 450.2,-485 456.2,-479 462.2,-479 462.2,-479 540.86,-479 540.86,-479 546.86,-479 552.86,-485 552.86,-491 552.86,-491 552.86,-503 552.86,-503 552.86,-509 546.86,-515 540.86,-515"/>
<text xml:space="preserve" text-anchor="middle" x="501.53" y="-493.02" font-family="Helvetica,sans-Serif" font-size="10.50" fill="white">event_normalizer</text>
</g>
<!-- AP2&#45;&gt;EN -->
<g id="edge7" class="edge">
<title>AP2&#45;&gt;EN</title>
<path fill="none" stroke="#5d6d7e" stroke-width="1.2" d="M333.03,-340.35C347.72,-348.91 364.09,-360.08 376.57,-373 408.82,-406.39 395.38,-431.61 429.57,-463 433.86,-466.94 438.69,-470.51 443.77,-473.73"/>
<polygon fill="#5d6d7e" stroke="#5d6d7e" stroke-width="1.2" points="442.01,-475.94 450.33,-477.57 444.84,-471.11 442.01,-475.94"/>
</g>
<!-- VR -->
<g id="node14" class="node">
<title>VR</title>
<path fill="#aab7b8" stroke="#7b8a8b" stroke-width="1.1" d="M534.86,-311C534.86,-311 468.2,-311 468.2,-311 462.2,-311 456.2,-305 456.2,-299 456.2,-299 456.2,-287 456.2,-287 456.2,-281 462.2,-275 468.2,-275 468.2,-275 534.86,-275 534.86,-275 540.86,-275 546.86,-281 546.86,-287 546.86,-287 546.86,-299 546.86,-299 546.86,-305 540.86,-311 534.86,-311"/>
<text xml:space="preserve" text-anchor="middle" x="501.53" y="-289.02" font-family="Helvetica,sans-Serif" font-size="10.50" fill="white">venue_registry</text>
</g>
<!-- AP2&#45;&gt;VR -->
<g id="edge8" class="edge">
<title>AP2&#45;&gt;VR</title>
<path fill="none" stroke="#5d6d7e" stroke-width="1.2" d="M352.78,-314C381.93,-309.86 417.35,-304.82 446.2,-300.72"/>
<polygon fill="#5d6d7e" stroke="#5d6d7e" stroke-width="1.2" points="446.39,-303.52 453.92,-299.62 445.6,-297.98 446.39,-303.52"/>
</g>
<!-- TT -->
<g id="node15" class="node">
<title>TT</title>
<path fill="#aab7b8" stroke="#7b8a8b" stroke-width="1.1" d="M533.36,-379C533.36,-379 469.7,-379 469.7,-379 463.7,-379 457.7,-373 457.7,-367 457.7,-367 457.7,-355 457.7,-355 457.7,-349 463.7,-343 469.7,-343 469.7,-343 533.36,-343 533.36,-343 539.36,-343 545.36,-349 545.36,-355 545.36,-355 545.36,-367 545.36,-367 545.36,-373 539.36,-379 533.36,-379"/>
<text xml:space="preserve" text-anchor="middle" x="501.53" y="-357.02" font-family="Helvetica,sans-Serif" font-size="10.50" fill="white">tag_taxonomy</text>
</g>
<!-- AP2&#45;&gt;TT -->
<g id="edge9" class="edge">
<title>AP2&#45;&gt;TT</title>
<path fill="none" stroke="#5d6d7e" stroke-width="1.2" d="M352.78,-332.76C382.46,-338.43 418.64,-345.35 447.77,-350.92"/>
<polygon fill="#5d6d7e" stroke="#5d6d7e" stroke-width="1.2" points="447.19,-353.66 455.57,-352.41 448.24,-348.16 447.19,-353.66"/>
</g>
<!-- ART -->
<g id="node19" class="node">
<title>ART</title>
<path fill="#82e0aa" stroke="#28b463" stroke-width="1.1" d="M542.73,-100.35C542.73,-103.83 524.26,-106.65 501.53,-106.65 478.79,-106.65 460.32,-103.83 460.32,-100.35 460.32,-100.35 460.32,-43.65 460.32,-43.65 460.32,-40.17 478.79,-37.35 501.53,-37.35 524.26,-37.35 542.73,-40.17 542.73,-43.65 542.73,-43.65 542.73,-100.35 542.73,-100.35"/>
<path fill="none" stroke="#28b463" stroke-width="1.1" d="M542.73,-100.35C542.73,-96.87 524.26,-94.05 501.53,-94.05 478.79,-94.05 460.32,-96.87 460.32,-100.35"/>
<text xml:space="preserve" text-anchor="middle" x="501.53" y="-80.03" font-family="Helvetica,sans-Serif" font-size="10.50">data/artifacts</text>
<text xml:space="preserve" text-anchor="middle" x="501.53" y="-68.03" font-family="Helvetica,sans-Serif" font-size="10.50">model.pkl</text>
<text xml:space="preserve" text-anchor="middle" x="501.53" y="-56.02" font-family="Helvetica,sans-Serif" font-size="10.50">vectorizer.pkl</text>
</g>
<!-- AP2&#45;&gt;ART -->
<g id="edge10" class="edge">
<title>AP2&#45;&gt;ART</title>
<path fill="none" stroke="#5d6d7e" stroke-width="1.2" d="M352.65,-305.57C361.53,-301.01 369.95,-295.25 376.57,-288 428.51,-231.12 384.24,-185.27 429.57,-123 435.72,-114.55 443.7,-106.95 452.08,-100.36"/>
<polygon fill="#5d6d7e" stroke="#5d6d7e" stroke-width="1.2" points="453.63,-102.7 458.39,-95.68 450.3,-98.2 453.63,-102.7"/>
</g>
<!-- WU2&#45;&gt;EL -->
<g id="edge11" class="edge">
<title>WU2&#45;&gt;EL</title>
<path fill="none" stroke="#5d6d7e" stroke-width="1.2" d="M354.69,-245.73C386.43,-241.22 425.17,-235.71 454.74,-231.51"/>
<polygon fill="#5d6d7e" stroke="#5d6d7e" stroke-width="1.2" points="455.07,-234.29 462.6,-230.39 454.28,-228.74 455.07,-234.29"/>
</g>
<!-- CACHE -->
<g id="node21" class="node">
<title>CACHE</title>
<path fill="#82e0aa" stroke="#28b463" stroke-width="1.1" d="M537.86,-171.85C537.86,-173.67 521.57,-175.15 501.53,-175.15 481.48,-175.15 465.2,-173.67 465.2,-171.85 465.2,-171.85 465.2,-142.15 465.2,-142.15 465.2,-140.33 481.48,-138.85 501.53,-138.85 521.57,-138.85 537.86,-140.33 537.86,-142.15 537.86,-142.15 537.86,-171.85 537.86,-171.85"/>
<path fill="none" stroke="#28b463" stroke-width="1.1" d="M537.86,-171.85C537.86,-170.03 521.57,-168.55 501.53,-168.55 481.48,-168.55 465.2,-170.03 465.2,-171.85"/>
<text xml:space="preserve" text-anchor="middle" x="501.53" y="-153.03" font-family="Helvetica,sans-Serif" font-size="10.50">data/cache</text>
</g>
<!-- WU2&#45;&gt;CACHE -->
<g id="edge12" class="edge">
<title>WU2&#45;&gt;CACHE</title>
<path fill="none" stroke="#5d6d7e" stroke-width="1.2" d="M342.16,-235.53C353.5,-230.7 365.56,-225.33 376.57,-220 400.74,-208.29 405.68,-203.25 429.57,-191 438.14,-186.61 447.37,-182.05 456.25,-177.76"/>
<polygon fill="#5d6d7e" stroke="#5d6d7e" stroke-width="1.2" points="457.33,-180.35 463.33,-174.36 454.91,-175.3 457.33,-180.35"/>
</g>
<!-- ST -->
<g id="node8" class="node">
<title>ST</title>
<path fill="#af7ac5" stroke="#8e44ad" stroke-width="1.1" d="M340.44,-61C340.44,-61 250.54,-61 250.54,-61 244.54,-61 238.54,-55 238.54,-49 238.54,-49 238.54,-37 238.54,-37 238.54,-31 244.54,-25 250.54,-25 250.54,-25 340.44,-25 340.44,-25 346.44,-25 352.44,-31 352.44,-37 352.44,-37 352.44,-49 352.44,-49 352.44,-55 346.44,-61 340.44,-61"/>
<text xml:space="preserve" text-anchor="middle" x="295.49" y="-39.02" font-family="Helvetica,sans-Serif" font-size="10.50" fill="white">svm_train_from_file</text>
</g>
<!-- ST&#45;&gt;ART -->
<g id="edge13" class="edge">
<title>ST&#45;&gt;ART</title>
<path fill="none" stroke="#5d6d7e" stroke-width="1.2" d="M352.78,-51C383.3,-55.34 420.71,-60.66 450.25,-64.85"/>
<polygon fill="#5d6d7e" stroke="#5d6d7e" stroke-width="1.2" points="449.83,-67.62 458.14,-65.98 450.62,-62.08 449.83,-67.62"/>
</g>
<!-- SG -->
<g id="node9" class="node">
<title>SG</title>
<path fill="#af7ac5" stroke="#8e44ad" stroke-width="1.1" d="M125.79,-52C125.79,-52 51.63,-52 51.63,-52 45.63,-52 39.63,-46 39.63,-40 39.63,-40 39.63,-28 39.63,-28 39.63,-22 45.63,-16 51.63,-16 51.63,-16 125.79,-16 125.79,-16 131.79,-16 137.79,-22 137.79,-28 137.79,-28 137.79,-40 137.79,-40 137.79,-46 131.79,-52 125.79,-52"/>
<text xml:space="preserve" text-anchor="middle" x="88.71" y="-30.02" font-family="Helvetica,sans-Serif" font-size="10.50" fill="white">svm_tag_events</text>
</g>
<!-- SG&#45;&gt;ART -->
<g id="edge14" class="edge">
<title>SG&#45;&gt;ART</title>
<path fill="none" stroke="#5d6d7e" stroke-width="1.2" d="M132.07,-52.54C155.78,-61.91 186.18,-72.27 214.41,-77 296.16,-90.7 392.88,-84.42 450.34,-78.38"/>
<polygon fill="#5d6d7e" stroke="#5d6d7e" stroke-width="1.2" points="450.45,-81.19 458.1,-77.54 449.84,-75.62 450.45,-81.19"/>
</g>
<!-- AL -->
<g id="node10" class="node">
<title>AL</title>
<path fill="#af7ac5" stroke="#8e44ad" stroke-width="1.1" d="M137.04,-120C137.04,-120 40.38,-120 40.38,-120 34.38,-120 28.38,-114 28.38,-108 28.38,-108 28.38,-96 28.38,-96 28.38,-90 34.38,-84 40.38,-84 40.38,-84 137.04,-84 137.04,-84 143.04,-84 149.04,-90 149.04,-96 149.04,-96 149.04,-108 149.04,-108 149.04,-114 143.04,-120 137.04,-120"/>
<text xml:space="preserve" text-anchor="middle" x="88.71" y="-98.03" font-family="Helvetica,sans-Serif" font-size="10.50" fill="white">auto_label_and_train</text>
</g>
<!-- AL&#45;&gt;ST -->
<g id="edge15" class="edge">
<title>AL&#45;&gt;ST</title>
<path fill="none" stroke="#5d6d7e" stroke-width="1.2" d="M149.49,-84.78C174.41,-77.6 203.42,-69.24 228.93,-61.89"/>
<polygon fill="#5d6d7e" stroke="#5d6d7e" stroke-width="1.2" points="229.49,-64.64 236.4,-59.74 227.94,-59.26 229.49,-64.64"/>
</g>
<!-- RAW -->
<g id="node20" class="node">
<title>RAW</title>
<path fill="#82e0aa" stroke="#28b463" stroke-width="1.1" d="M573.48,-587.85C573.48,-589.67 541.23,-591.15 501.53,-591.15 461.82,-591.15 429.57,-589.67 429.57,-587.85 429.57,-587.85 429.57,-558.15 429.57,-558.15 429.57,-556.33 461.82,-554.85 501.53,-554.85 541.23,-554.85 573.48,-556.33 573.48,-558.15 573.48,-558.15 573.48,-587.85 573.48,-587.85"/>
<path fill="none" stroke="#28b463" stroke-width="1.1" d="M573.48,-587.85C573.48,-586.03 541.23,-584.55 501.53,-584.55 461.82,-584.55 429.57,-586.03 429.57,-587.85"/>
<text xml:space="preserve" text-anchor="middle" x="501.53" y="-569.02" font-family="Helvetica,sans-Serif" font-size="10.50">data/raw and data/labeled</text>
</g>
<!-- AL&#45;&gt;RAW -->
<g id="edge16" class="edge">
<title>AL&#45;&gt;RAW</title>
<path fill="none" stroke="#5d6d7e" stroke-width="1.2" d="M132.51,-120.33C146.23,-128.2 160.23,-138.69 169.41,-152 227.33,-235.94 151.08,-297.07 214.41,-377 263.61,-439.09 318.92,-396.67 376.57,-451 411.03,-483.48 393.26,-514.98 428.62,-549.16"/>
<polygon fill="#5d6d7e" stroke="#5d6d7e" stroke-width="1.2" points="426.66,-551.17 434.51,-554.37 430.37,-546.98 426.66,-551.17"/>
</g>
<!-- PS -->
<g id="node16" class="node">
<title>PS</title>
<path fill="#58d68d" stroke="#28b463" stroke-width="1.1" d="M356.57,-503C356.57,-503 234.41,-503 234.41,-503 228.41,-503 222.41,-497 222.41,-491 222.41,-491 222.41,-479 222.41,-479 222.41,-473 228.41,-467 234.41,-467 234.41,-467 356.57,-467 356.57,-467 362.57,-467 368.57,-473 368.57,-479 368.57,-479 368.57,-491 368.57,-491 368.57,-497 362.57,-503 356.57,-503"/>
<text xml:space="preserve" text-anchor="middle" x="295.49" y="-481.02" font-family="Helvetica,sans-Serif" font-size="10.50" fill="white">perdido_chamber_scraper</text>
</g>
<!-- PS&#45;&gt;RAW -->
<g id="edge17" class="edge">
<title>PS&#45;&gt;RAW</title>
<path fill="none" stroke="#5d6d7e" stroke-width="1.2" d="M343.16,-503.5C354.25,-508.26 365.94,-513.57 376.57,-519 401.07,-531.52 404.47,-539.73 429.57,-551 430.1,-551.24 430.64,-551.48 431.18,-551.71"/>
<polygon fill="#5d6d7e" stroke="#5d6d7e" stroke-width="1.2" points="430,-554.26 438.46,-554.71 432.13,-549.08 430,-554.26"/>
</g>
<!-- WH -->
<g id="node17" class="node">
<title>WH</title>
<path fill="#58d68d" stroke="#28b463" stroke-width="1.1" d="M343.82,-571C343.82,-571 247.16,-571 247.16,-571 241.16,-571 235.16,-565 235.16,-559 235.16,-559 235.16,-547 235.16,-547 235.16,-541 241.16,-535 247.16,-535 247.16,-535 343.82,-535 343.82,-535 349.82,-535 355.82,-541 355.82,-547 355.82,-547 355.82,-559 355.82,-559 355.82,-565 349.82,-571 343.82,-571"/>
<text xml:space="preserve" text-anchor="middle" x="295.49" y="-549.02" font-family="Helvetica,sans-Serif" font-size="10.50" fill="white">wren_haven_scraper</text>
</g>
<!-- WH&#45;&gt;RAW -->
<g id="edge18" class="edge">
<title>WH&#45;&gt;RAW</title>
<path fill="none" stroke="#5d6d7e" stroke-width="1.2" d="M356.33,-558.87C376.11,-560.8 398.46,-563 419.56,-565.06"/>
<polygon fill="#5d6d7e" stroke="#5d6d7e" stroke-width="1.2" points="419.1,-567.83 427.34,-565.83 419.65,-562.26 419.1,-567.83"/>
</g>
<!-- MC&#45;&gt;RAW -->
<g id="edge19" class="edge">
<title>MC&#45;&gt;RAW</title>
<path fill="none" stroke="#5d6d7e" stroke-width="1.2" d="M361.89,-605.61C380.32,-601.28 400.59,-596.51 419.81,-591.99"/>
<polygon fill="#5d6d7e" stroke="#5d6d7e" stroke-width="1.2" points="420.23,-594.77 427.37,-590.21 418.94,-589.32 420.23,-594.77"/>
</g>
</g>
</svg>
