<?xml version="1.0" encoding="UTF-8" standalone="no"?>
<!DOCTYPE svg PUBLIC "-//W3C//DTD SVG 1.1//EN"
 "http://www.w3.org/Graphics/SVG/1.1/DTD/svg11.dtd">
<!-- Generated by graphviz version 13.1.1 (20250719.2154)
 -->
<!-- Title: script_dependencies Pages: 1 -->
<svg width="2142pt" height="409pt"
 viewBox="0.00 0.00 2142.00 409.00" xmlns="http://www.w3.org/2000/svg" xmlns:xlink="http://www.w3.org/1999/xlink">
<g id="graph0" class="graph" transform="scale(1 1) rotate(0) translate(32.4 376.48)">
<title>script_dependencies</title>
<polygon fill="white" stroke="none" points="-32.4,32.4 -32.4,-376.48 2109.35,-376.48 2109.35,32.4 -32.4,32.4"/>
<!-- SOURCES -->
<g id="node1" class="node">
<title>SOURCES</title>
<path fill="#5dade2" stroke="#2e86c1" stroke-width="1.2" d="M154.05,-246.16C154.05,-246.16 12,-246.16 12,-246.16 6,-246.16 0,-240.16 0,-234.16 0,-234.16 0,-209.5 0,-209.5 0,-203.5 6,-197.5 12,-197.5 12,-197.5 154.05,-197.5 154.05,-197.5 160.05,-197.5 166.05,-203.5 166.05,-209.5 166.05,-209.5 166.05,-234.16 166.05,-234.16 166.05,-240.16 160.05,-246.16 154.05,-246.16"/>
<text xml:space="preserve" text-anchor="middle" x="83.03" y="-224.68" font-family="Helvetica,sans-Serif" font-size="12.00" fill="white">Community calendars</text>
<text xml:space="preserve" text-anchor="middle" x="83.03" y="-210.43" font-family="Helvetica,sans-Serif" font-size="12.00" fill="white">web pages and ICS feeds</text>
</g>
<!-- SCRAPERS -->
<g id="node2" class="node">
<title>SCRAPERS</title>
<path fill="#58d68d" stroke="#28b463" stroke-width="1.2" d="M396.1,-260.41C396.1,-260.41 251.05,-260.41 251.05,-260.41 245.05,-260.41 239.05,-254.41 239.05,-248.41 239.05,-248.41 239.05,-195.25 239.05,-195.25 239.05,-189.25 245.05,-183.25 251.05,-183.25 251.05,-183.25 396.1,-183.25 396.1,-183.25 402.1,-183.25 408.1,-189.25 408.1,-195.25 408.1,-195.25 408.1,-248.41 408.1,-248.41 408.1,-254.41 402.1,-260.41 396.1,-260.41"/>
<text xml:space="preserve" text-anchor="middle" x="323.58" y="-238.93" font-family="Helvetica,sans-Serif" font-size="12.00" fill="white">scripts/scrapers</text>
<text xml:space="preserve" text-anchor="middle" x="323.58" y="-224.68" font-family="Helvetica,sans-Serif" font-size="12.00" fill="white">perdido_chamber_scraper</text>
<text xml:space="preserve" text-anchor="middle" x="323.58" y="-210.43" font-family="Helvetica,sans-Serif" font-size="12.00" fill="white">wren_haven_scraper</text>
<text xml:space="preserve" text-anchor="middle" x="323.58" y="-196.18" font-family="Helvetica,sans-Serif" font-size="12.00" fill="white">multi_calendar_scraper</text>
</g>
<!-- SOURCES&#45;&gt;SCRAPERS -->
<g id="edge1" class="edge">
<title>SOURCES&#45;&gt;SCRAPERS</title>
<path fill="none" stroke="#5d6d7e" stroke-width="1.4" d="M166.45,-221.83C186.11,-221.83 207.25,-221.83 227.43,-221.83"/>
<polygon fill="#5d6d7e" stroke="#5d6d7e" stroke-width="1.4" points="227.4,-224.98 236.4,-221.83 227.4,-218.68 227.4,-224.98"/>
</g>
<!-- RAW -->
<g id="node3" class="node">
<title>RAW</title>
<path fill="#82e0aa" stroke="#28b463" stroke-width="1.2" d="M603.65,-249.2C603.65,-252.56 576.19,-255.28 542.38,-255.28 508.56,-255.28 481.1,-252.56 481.1,-249.2 481.1,-249.2 481.1,-194.46 481.1,-194.46 481.1,-191.1 508.56,-188.38 542.38,-188.38 576.19,-188.38 603.65,-191.1 603.65,-194.46 603.65,-194.46 603.65,-249.2 603.65,-249.2"/>
<path fill="none" stroke="#28b463" stroke-width="1.2" d="M603.65,-249.2C603.65,-245.85 576.19,-243.12 542.38,-243.12 508.56,-243.12 481.1,-245.85 481.1,-249.2"/>
<text xml:space="preserve" text-anchor="middle" x="542.38" y="-224.68" font-family="Helvetica,sans-Serif" font-size="12.00">data/raw</text>
<text xml:space="preserve" text-anchor="middle" x="542.38" y="-210.43" font-family="Helvetica,sans-Serif" font-size="12.00">raw event exports</text>
</g>
<!-- SCRAPERS&#45;&gt;RAW -->
<g id="edge2" class="edge">
<title>SCRAPERS&#45;&gt;RAW</title>
<path fill="none" stroke="#5d6d7e" stroke-width="1.4" d="M408.4,-221.83C428.61,-221.83 450.03,-221.83 469.63,-221.83"/>
<polygon fill="#5d6d7e" stroke="#5d6d7e" stroke-width="1.4" points="469.51,-224.98 478.51,-221.83 469.51,-218.68 469.51,-224.98"/>
</g>
<!-- LABELED -->
<g id="node4" class="node">
<title>LABELED</title>
<path fill="#82e0aa" stroke="#28b463" stroke-width="1.2" d="M887.45,-320.2C887.45,-323.56 854.61,-326.28 814.18,-326.28 773.74,-326.28 740.9,-323.56 740.9,-320.2 740.9,-320.2 740.9,-265.46 740.9,-265.46 740.9,-262.1 773.74,-259.38 814.18,-259.38 854.61,-259.38 887.45,-262.1 887.45,-265.46 887.45,-265.46 887.45,-320.2 887.45,-320.2"/>
<path fill="none" stroke="#28b463" stroke-width="1.2" d="M887.45,-320.2C887.45,-316.85 854.61,-314.12 814.18,-314.12 773.74,-314.12 740.9,-316.85 740.9,-320.2"/>
<text xml:space="preserve" text-anchor="middle" x="814.18" y="-295.68" font-family="Helvetica,sans-Serif" font-size="12.00">data/labeled</text>
<text xml:space="preserve" text-anchor="middle" x="814.18" y="-281.43" font-family="Helvetica,sans-Serif" font-size="12.00">reviewed training data</text>
</g>
<!-- RAW&#45;&gt;LABELED -->
<g id="edge4" class="edge">
<title>RAW&#45;&gt;LABELED</title>
<path fill="none" stroke="#5d6d7e" stroke-width="1.4" d="M603.92,-237.76C641,-247.52 688.98,-260.15 729.65,-270.85"/>
<polygon fill="#5d6d7e" stroke="#5d6d7e" stroke-width="1.4" points="728.8,-273.88 738.31,-273.13 730.41,-267.79 728.8,-273.88"/>
<text xml:space="preserve" text-anchor="middle" x="672.28" y="-265.71" font-family="Helvetica,sans-Serif" font-size="10.50">review subset</text>
</g>
<!-- PIPE -->
<g id="node7" class="node">
<title>PIPE</title>
<path fill="#f8c471" stroke="#d68910" stroke-width="1.2" d="M1635.6,-213.28C1635.6,-213.28 1525.05,-213.28 1525.05,-213.28 1519.05,-213.28 1513.05,-207.28 1513.05,-201.28 1513.05,-201.28 1513.05,-162.37 1513.05,-162.37 1513.05,-156.37 1519.05,-150.37 1525.05,-150.37 1525.05,-150.37 1635.6,-150.37 1635.6,-150.37 1641.6,-150.37 1647.6,-156.37 1647.6,-162.37 1647.6,-162.37 1647.6,-201.28 1647.6,-201.28 1647.6,-207.28 1641.6,-213.28 1635.6,-213.28"/>
<text xml:space="preserve" text-anchor="middle" x="1580.33" y="-191.8" font-family="Helvetica,sans-Serif" font-size="12.00">scripts/pipeline</text>
<text xml:space="preserve" text-anchor="middle" x="1580.33" y="-177.55" font-family="Helvetica,sans-Serif" font-size="12.00">automated_pipeline</text>
<text xml:space="preserve" text-anchor="middle" x="1580.33" y="-163.3" font-family="Helvetica,sans-Serif" font-size="12.00">health_check</text>
</g>
<!-- RAW&#45;&gt;PIPE -->
<g id="edge3" class="edge">
<title>RAW&#45;&gt;PIPE</title>
<path fill="none" stroke="#5d6d7e" stroke-width="1.4" d="M604.07,-207.61C658.51,-196.12 740.73,-181.83 813.18,-181.83 813.18,-181.83 813.18,-181.83 1296.78,-181.83 1365.99,-181.83 1444.74,-181.83 1501.48,-181.83"/>
<polygon fill="#5d6d7e" stroke="#5d6d7e" stroke-width="1.4" points="1501.41,-184.98 1510.41,-181.83 1501.41,-178.68 1501.41,-184.98"/>
<text xml:space="preserve" text-anchor="middle" x="1091.23" y="-183.85" font-family="Helvetica,sans-Serif" font-size="10.50">runtime input</text>
</g>
<!-- ML -->
<g id="node5" class="node">
<title>ML</title>
<path fill="#af7ac5" stroke="#8e44ad" stroke-width="1.2" d="M1150.25,-337.41C1150.25,-337.41 1032.2,-337.41 1032.2,-337.41 1026.2,-337.41 1020.2,-331.41 1020.2,-325.41 1020.2,-325.41 1020.2,-272.25 1020.2,-272.25 1020.2,-266.25 1026.2,-260.25 1032.2,-260.25 1032.2,-260.25 1150.25,-260.25 1150.25,-260.25 1156.25,-260.25 1162.25,-266.25 1162.25,-272.25 1162.25,-272.25 1162.25,-325.41 1162.25,-325.41 1162.25,-331.41 1156.25,-337.41 1150.25,-337.41"/>
<text xml:space="preserve" text-anchor="middle" x="1091.23" y="-315.93" font-family="Helvetica,sans-Serif" font-size="12.00" fill="white">scripts/ml</text>
<text xml:space="preserve" text-anchor="middle" x="1091.23" y="-301.68" font-family="Helvetica,sans-Serif" font-size="12.00" fill="white">svm_train_from_file</text>
<text xml:space="preserve" text-anchor="middle" x="1091.23" y="-287.43" font-family="Helvetica,sans-Serif" font-size="12.00" fill="white">auto_label_and_train</text>
<text xml:space="preserve" text-anchor="middle" x="1091.23" y="-273.18" font-family="Helvetica,sans-Serif" font-size="12.00" fill="white">svm_tag_events</text>
</g>
<!-- LABELED&#45;&gt;ML -->
<g id="edge5" class="edge">
<title>LABELED&#45;&gt;ML</title>
<path fill="none" stroke="#5d6d7e" stroke-width="1.4" d="M887.8,-294.41C925.19,-295.23 970.88,-296.23 1009.39,-297.07"/>
<polygon fill="#5d6d7e" stroke="#5d6d7e" stroke-width="1.4" points="1008.86,-300.21 1017.93,-297.25 1009,-293.91 1008.86,-300.21"/>
<text xml:space="preserve" text-anchor="middle" x="953.83" y="-298.39" font-family="Helvetica,sans-Serif" font-size="10.50">train / retrain</text>
</g>
<!-- ART -->
<g id="node6" class="node">
<title>ART</title>
<path fill="#82e0aa" stroke="#28b463" stroke-width="1.2" d="M1345.05,-336.22C1345.05,-340.56 1322.96,-344.08 1295.78,-344.08 1268.59,-344.08 1246.5,-340.56 1246.5,-336.22 1246.5,-336.22 1246.5,-265.44 1246.5,-265.44 1246.5,-261.1 1268.59,-257.58 1295.78,-257.58 1322.96,-257.58 1345.05,-261.1 1345.05,-265.44 1345.05,-265.44 1345.05,-336.22 1345.05,-336.22"/>
<path fill="none" stroke="#28b463" stroke-width="1.2" d="M1345.05,-336.22C1345.05,-331.88 1322.96,-328.35 1295.78,-328.35 1268.59,-328.35 1246.5,-331.88 1246.5,-336.22"/>
<text xml:space="preserve" text-anchor="middle" x="1295.78" y="-310.81" font-family="Helvetica,sans-Serif" font-size="12.00">data/artifacts</text>
<text xml:space="preserve" text-anchor="middle" x="1295.78" y="-296.56" font-family="Helvetica,sans-Serif" font-size="12.00">model.pkl</text>
<text xml:space="preserve" text-anchor="middle" x="1295.78" y="-282.31" font-family="Helvetica,sans-Serif" font-size="12.00">vectorizer.pkl</text>
</g>
<!-- ML&#45;&gt;ART -->
<g id="edge6" class="edge">
<title>ML&#45;&gt;ART</title>
<path fill="none" stroke="#5d6d7e" stroke-width="1.4" d="M1162.78,-299.53C1186.43,-299.76 1212.54,-300.02 1235.26,-300.24"/>
<polygon fill="#5d6d7e" stroke="#5d6d7e" stroke-width="1.4" points="1234.96,-303.39 1243.99,-300.33 1235.02,-297.09 1234.96,-303.39"/>
</g>
<!-- ART&#45;&gt;PIPE -->
<g id="edge7" class="edge">
<title>ART&#45;&gt;PIPE</title>
<path fill="none" stroke="#5d6d7e" stroke-width="1.4" d="M1345.35,-280.37C1388.52,-262.19 1452.38,-235.29 1502.49,-214.19"/>
<polygon fill="#5d6d7e" stroke="#5d6d7e" stroke-width="1.4" points="1503.61,-217.14 1510.68,-210.74 1501.16,-211.33 1503.61,-217.14"/>
<text xml:space="preserve" text-anchor="middle" x="1434.68" y="-260.97" font-family="Helvetica,sans-Serif" font-size="10.50">inference artifacts</text>
</g>
<!-- OUT -->
<g id="node9" class="node">
<title>OUT</title>
<path fill="#82e0aa" stroke="#28b463" stroke-width="1.2" d="M1907.65,-263.2C1907.65,-266.56 1867.75,-269.28 1818.63,-269.28 1769.5,-269.28 1729.6,-266.56 1729.6,-263.2 1729.6,-263.2 1729.6,-208.46 1729.6,-208.46 1729.6,-205.1 1769.5,-202.38 1818.63,-202.38 1867.75,-202.38 1907.65,-205.1 1907.65,-208.46 1907.65,-208.46 1907.65,-263.2 1907.65,-263.2"/>
<path fill="none" stroke="#28b463" stroke-width="1.2" d="M1907.65,-263.2C1907.65,-259.85 1867.75,-257.12 1818.63,-257.12 1769.5,-257.12 1729.6,-259.85 1729.6,-263.2"/>
<text xml:space="preserve" text-anchor="middle" x="1818.63" y="-238.68" font-family="Helvetica,sans-Serif" font-size="12.00">output/pipeline</text>
<text xml:space="preserve" text-anchor="middle" x="1818.63" y="-224.43" font-family="Helvetica,sans-Serif" font-size="12.00">CSV, email summaries, logs</text>
</g>
<!-- PIPE&#45;&gt;OUT -->
<g id="edge9" class="edge">
<title>PIPE&#45;&gt;OUT</title>
<path fill="none" stroke="#5d6d7e" stroke-width="1.4" d="M1648.09,-197.09C1669.99,-202.09 1694.81,-207.76 1718.57,-213.19"/>
<polygon fill="#5d6d7e" stroke="#5d6d7e" stroke-width="1.4" points="1717.85,-216.26 1727.33,-215.2 1719.26,-210.12 1717.85,-216.26"/>
</g>
<!-- WP -->
<g id="node10" class="node">
<title>WP</title>
<path fill="#ec7063" stroke="#c0392b" stroke-width="1.2" d="M1904.65,-152.16C1904.65,-152.16 1732.6,-152.16 1732.6,-152.16 1726.6,-152.16 1720.6,-146.16 1720.6,-140.16 1720.6,-140.16 1720.6,-115.5 1720.6,-115.5 1720.6,-109.5 1726.6,-103.5 1732.6,-103.5 1732.6,-103.5 1904.65,-103.5 1904.65,-103.5 1910.65,-103.5 1916.65,-109.5 1916.65,-115.5 1916.65,-115.5 1916.65,-140.16 1916.65,-140.16 1916.65,-146.16 1910.65,-152.16 1904.65,-152.16"/>
<text xml:space="preserve" text-anchor="middle" x="1818.63" y="-130.68" font-family="Helvetica,sans-Serif" font-size="12.00" fill="white">wordpress_uploader</text>
<text xml:space="preserve" text-anchor="middle" x="1818.63" y="-116.43" font-family="Helvetica,sans-Serif" font-size="12.00" fill="white">WordPress drafts and metadata</text>
</g>
<!-- PIPE&#45;&gt;WP -->
<g id="edge10" class="edge">
<title>PIPE&#45;&gt;WP</title>
<path fill="none" stroke="#5d6d7e" stroke-width="1.4" d="M1648.09,-166.57C1667.24,-162.2 1688.62,-157.31 1709.58,-152.52"/>
<polygon fill="#5d6d7e" stroke="#5d6d7e" stroke-width="1.4" points="1710.01,-155.65 1718.09,-150.58 1708.61,-149.51 1710.01,-155.65"/>
</g>
<!-- TOOL -->
<g id="node8" class="node">
<title>TOOL</title>
<path fill="#aab7b8" stroke="#7b8a8b" stroke-width="1.2" d="M1344.3,-105.66C1344.3,-105.66 1247.25,-105.66 1247.25,-105.66 1241.25,-105.66 1235.25,-99.66 1235.25,-93.66 1235.25,-93.66 1235.25,-12 1235.25,-12 1235.25,-6 1241.25,0 1247.25,0 1247.25,0 1344.3,0 1344.3,0 1350.3,0 1356.3,-6 1356.3,-12 1356.3,-12 1356.3,-93.66 1356.3,-93.66 1356.3,-99.66 1350.3,-105.66 1344.3,-105.66"/>
<text xml:space="preserve" text-anchor="middle" x="1295.78" y="-84.18" font-family="Helvetica,sans-Serif" font-size="12.00" fill="white">scripts/tooling</text>
<text xml:space="preserve" text-anchor="middle" x="1295.78" y="-69.93" font-family="Helvetica,sans-Serif" font-size="12.00" fill="white">env_loader</text>
<text xml:space="preserve" text-anchor="middle" x="1295.78" y="-55.68" font-family="Helvetica,sans-Serif" font-size="12.00" fill="white">logger</text>
<text xml:space="preserve" text-anchor="middle" x="1295.78" y="-41.43" font-family="Helvetica,sans-Serif" font-size="12.00" fill="white">event_normalizer</text>
<text xml:space="preserve" text-anchor="middle" x="1295.78" y="-27.18" font-family="Helvetica,sans-Serif" font-size="12.00" fill="white">venue_registry</text>
<text xml:space="preserve" text-anchor="middle" x="1295.78" y="-12.93" font-family="Helvetica,sans-Serif" font-size="12.00" fill="white">tag_taxonomy</text>
</g>
<!-- TOOL&#45;&gt;PIPE -->
<g id="edge8" class="edge">
<title>TOOL&#45;&gt;PIPE</title>
<path fill="none" stroke="#5d6d7e" stroke-width="1.4" d="M1366.89,-82.75C1400.38,-97.25 1440.94,-115.1 1477.05,-131.83 1486.17,-136.05 1495.7,-140.57 1505.12,-145.1"/>
<polygon fill="#5d6d7e" stroke="#5d6d7e" stroke-width="1.4" points="1368.19,-79.88 1358.68,-79.2 1365.69,-85.66 1368.19,-79.88"/>
<polygon fill="#5d6d7e" stroke="#5d6d7e" stroke-width="1.4" points="1503.49,-147.81 1512.96,-148.89 1506.23,-142.14 1503.49,-147.81"/>
<text xml:space="preserve" text-anchor="middle" x="1434.68" y="-133.85" font-family="Helvetica,sans-Serif" font-size="10.50">shared helpers</text>
</g>
<!-- CACHE -->
<g id="node11" class="node">
<title>CACHE</title>
<path fill="#82e0aa" stroke="#28b463" stroke-width="1.2" d="M2076.95,-147.19C2076.95,-149.56 2057.39,-151.49 2033.3,-151.49 2009.21,-151.49 1989.65,-149.56 1989.65,-147.19 1989.65,-147.19 1989.65,-108.47 1989.65,-108.47 1989.65,-106.1 2009.21,-104.17 2033.3,-104.17 2057.39,-104.17 2076.95,-106.1 2076.95,-108.47 2076.95,-108.47 2076.95,-147.19 2076.95,-147.19"/>
<path fill="none" stroke="#28b463" stroke-width="1.2" d="M2076.95,-147.19C2076.95,-144.81 2057.39,-142.88 2033.3,-142.88 2009.21,-142.88 1989.65,-144.81 1989.65,-147.19"/>
<text xml:space="preserve" text-anchor="middle" x="2033.3" y="-123.55" font-family="Helvetica,sans-Serif" font-size="12.00">data/cache</text>
</g>
<!-- WP&#45;&gt;CACHE -->
<g id="edge11" class="edge">
<title>WP&#45;&gt;CACHE</title>
<path fill="none" stroke="#5d6d7e" stroke-width="1.4" d="M1917.25,-127.83C1938.24,-127.83 1959.68,-127.83 1978.28,-127.83"/>
<polygon fill="#5d6d7e" stroke="#5d6d7e" stroke-width="1.4" points="1978.05,-130.98 1987.05,-127.83 1978.05,-124.68 1978.05,-130.98"/>
</g>
</g>
</svg>
