<?xml version="1.0" encoding="UTF-8" standalone="no"?>
<!DOCTYPE svg PUBLIC "-//W3C//DTD SVG 1.1//EN"
 "http://www.w3.org/Graphics/SVG/1.1/DTD/svg11.dtd">
<!-- Generated by graphviz version 13.1.1 (20250719.2154)
 -->
<!-- Title: system_architecture Pages: 1 -->
<svg width="2703pt" height="334pt"
 viewBox="0.00 0.00 2703.00 334.00" xmlns="http://www.w3.org/2000/svg" xmlns:xlink="http://www.w3.org/1999/xlink">
<g id="graph0" class="graph" transform="scale(1 1) rotate(0) translate(21.6 312.6)">
<title>system_architecture</title>
<polygon fill="white" stroke="none" points="-21.6,21.6 -21.6,-312.6 2681.66,-312.6 2681.66,21.6 -21.6,21.6"/>
<g id="clust1" class="cluster">
<title>cluster_sources</title>
<path fill="#f4fafe" stroke="#d6eaf8" d="M20,-8C20,-8 120.54,-8 120.54,-8 126.54,-8 132.54,-14 132.54,-20 132.54,-20 132.54,-175 132.54,-175 132.54,-181 126.54,-187 120.54,-187 120.54,-187 20,-187 20,-187 14,-187 8,-181 8,-175 8,-175 8,-20 8,-20 8,-14 14,-8 20,-8"/>
<text xml:space="preserve" text-anchor="middle" x="70.27" y="-169.7" font-family="Helvetica,sans-Serif" font-size="14.00">Input Sources</text>
</g>
<g id="clust2" class="cluster">
<title>cluster_training</title>
<path fill="#fbf5fd" stroke="#e8daef" d="M411.58,-158C411.58,-158 698.91,-158 698.91,-158 704.91,-158 710.91,-164 710.91,-170 710.91,-170 710.91,-244 710.91,-244 710.91,-250 704.91,-256 698.91,-256 698.91,-256 411.58,-256 411.58,-256 405.58,-256 399.58,-250 399.58,-244 399.58,-244 399.58,-170 399.58,-170 399.58,-164 405.58,-158 411.58,-158"/>
<text xml:space="preserve" text-anchor="middle" x="555.24" y="-238.7" font-family="Helvetica,sans-Serif" font-size="14.00">Training</text>
</g>
<g id="clust3" class="cluster">
<title>cluster_artifacts</title>
<path fill="#f4fdf7" stroke="#d5f5e3" d="M761.91,-98C761.91,-98 902.2,-98 902.2,-98 908.2,-98 914.2,-104 914.2,-110 914.2,-110 914.2,-242 914.2,-242 914.2,-248 908.2,-254 902.2,-254 902.2,-254 761.91,-254 761.91,-254 755.91,-254 749.91,-248 749.91,-242 749.91,-242 749.91,-110 749.91,-110 749.91,-104 755.91,-98 761.91,-98"/>
<text xml:space="preserve" text-anchor="middle" x="832.05" y="-236.7" font-family="Helvetica,sans-Serif" font-size="14.00">data/artifacts</text>
</g>
<g id="clust4" class="cluster">
<title>cluster_inference</title>
<path fill="#fff8ed" stroke="#fdebd0" d="M965.2,-134C965.2,-134 1473.82,-134 1473.82,-134 1479.82,-134 1485.82,-140 1485.82,-146 1485.82,-146 1485.82,-206 1485.82,-206 1485.82,-212 1479.82,-218 1473.82,-218 1473.82,-218 965.2,-218 965.2,-218 959.2,-218 953.2,-212 953.2,-206 953.2,-206 953.2,-146 953.2,-146 953.2,-140 959.2,-134 965.2,-134"/>
<text xml:space="preserve" text-anchor="middle" x="1219.51" y="-200.7" font-family="Helvetica,sans-Serif" font-size="14.00">Inference</text>
</g>
<g id="clust5" class="cluster">
<title>cluster_output</title>
<path fill="#fff5f4" stroke="#fadbd8" d="M1643.07,-138C1643.07,-138 2640.06,-138 2640.06,-138 2646.06,-138 2652.06,-144 2652.06,-150 2652.06,-150 2652.06,-245 2652.06,-245 2652.06,-251 2646.06,-257 2640.06,-257 2640.06,-257 1643.07,-257 1643.07,-257 1637.07,-257 1631.07,-251 1631.07,-245 1631.07,-245 1631.07,-150 1631.07,-150 1631.07,-144 1637.07,-138 1643.07,-138"/>
<text xml:space="preserve" text-anchor="middle" x="2141.56" y="-239.7" font-family="Helvetica,sans-Serif" font-size="14.00">Output Enrichment</text>
</g>
<!-- WS -->
<g id="node1" class="node">
<title>WS</title>
<path fill="#5dade2" stroke="#2e86c1" stroke-width="1.2" d="M112.54,-155.64C112.54,-155.64 28,-155.64 28,-155.64 22,-155.64 16,-149.64 16,-143.64 16,-143.64 16,-96.36 16,-96.36 16,-90.36 22,-84.36 28,-84.36 28,-84.36 112.54,-84.36 112.54,-84.36 118.54,-84.36 124.54,-90.36 124.54,-96.36 124.54,-96.36 124.54,-143.64 124.54,-143.64 124.54,-149.64 118.54,-155.64 112.54,-155.64"/>
<text xml:space="preserve" text-anchor="middle" x="70.27" y="-136.55" font-family="Helvetica,sans-Serif" font-size="11.00" fill="white">Web Scrapers</text>
<text xml:space="preserve" text-anchor="middle" x="70.27" y="-123.05" font-family="Helvetica,sans-Serif" font-size="11.00" fill="white">Perdido Chamber</text>
<text xml:space="preserve" text-anchor="middle" x="70.27" y="-109.55" font-family="Helvetica,sans-Serif" font-size="11.00" fill="white">Wren Haven</text>
<text xml:space="preserve" text-anchor="middle" x="70.27" y="-96.05" font-family="Helvetica,sans-Serif" font-size="11.00" fill="white">Multi&#45;source</text>
</g>
<!-- NORM -->
<g id="node3" class="node">
<title>NORM</title>
<path fill="#f8c471" stroke="#d68910" stroke-width="1.2" d="M340.58,-94C340.58,-94 191.54,-94 191.54,-94 185.54,-94 179.54,-88 179.54,-82 179.54,-82 179.54,-70 179.54,-70 179.54,-64 185.54,-58 191.54,-58 191.54,-58 340.58,-58 340.58,-58 346.58,-58 352.58,-64 352.58,-70 352.58,-70 352.58,-82 352.58,-82 352.58,-88 346.58,-94 340.58,-94"/>
<text xml:space="preserve" text-anchor="middle" x="266.06" y="-72.3" font-family="Helvetica,sans-Serif" font-size="11.00">Data Collection and Normalizer</text>
</g>
<!-- WS&#45;&gt;NORM -->
<g id="edge1" class="edge">
<title>WS&#45;&gt;NORM</title>
<path fill="none" stroke="#5d6d7e" stroke-width="1.3" d="M124.99,-107.8C140.21,-104.35 157.21,-100.49 173.98,-96.68"/>
<polygon fill="#5d6d7e" stroke="#5d6d7e" stroke-width="1.3" points="174.16,-99.51 181.34,-95.01 172.92,-94.05 174.16,-99.51"/>
</g>
<!-- ICS -->
<g id="node2" class="node">
<title>ICS</title>
<path fill="#5dade2" stroke="#2e86c1" stroke-width="1.2" d="M96.79,-52C96.79,-52 43.75,-52 43.75,-52 37.75,-52 31.75,-46 31.75,-40 31.75,-40 31.75,-28 31.75,-28 31.75,-22 37.75,-16 43.75,-16 43.75,-16 96.79,-16 96.79,-16 102.79,-16 108.79,-22 108.79,-28 108.79,-28 108.79,-40 108.79,-40 108.79,-46 102.79,-52 96.79,-52"/>
<text xml:space="preserve" text-anchor="middle" x="70.27" y="-30.3" font-family="Helvetica,sans-Serif" font-size="11.00" fill="white">ICS Parser</text>
</g>
<!-- ICS&#45;&gt;NORM -->
<g id="edge2" class="edge">
<title>ICS&#45;&gt;NORM</title>
<path fill="none" stroke="#5d6d7e" stroke-width="1.3" d="M109.09,-42.2C126.65,-46 148.4,-50.72 170.02,-55.4"/>
<polygon fill="#5d6d7e" stroke="#5d6d7e" stroke-width="1.3" points="169.26,-58.1 177.67,-57.06 170.45,-52.63 169.26,-58.1"/>
</g>
<!-- TRAIN -->
<g id="node4" class="node">
<title>TRAIN</title>
<path fill="#af7ac5" stroke="#8e44ad" stroke-width="1.2" d="M526.62,-217.14C526.62,-217.14 419.58,-217.14 419.58,-217.14 413.58,-217.14 407.58,-211.14 407.58,-205.14 407.58,-205.14 407.58,-184.86 407.58,-184.86 407.58,-178.86 413.58,-172.86 419.58,-172.86 419.58,-172.86 526.62,-172.86 526.62,-172.86 532.62,-172.86 538.62,-178.86 538.62,-184.86 538.62,-184.86 538.62,-205.14 538.62,-205.14 538.62,-211.14 532.62,-217.14 526.62,-217.14"/>
<text xml:space="preserve" text-anchor="middle" x="473.1" y="-198.05" font-family="Helvetica,sans-Serif" font-size="11.00" fill="white">SVM Training</text>
<text xml:space="preserve" text-anchor="middle" x="473.1" y="-184.55" font-family="Helvetica,sans-Serif" font-size="11.00" fill="white">svm_train_from_file.py</text>
</g>
<!-- NORM&#45;&gt;TRAIN -->
<g id="edge3" class="edge">
<title>NORM&#45;&gt;TRAIN</title>
<path fill="none" stroke="#5d6d7e" stroke-width="1.3" d="M299.1,-94.59C332.71,-114.1 385.91,-144.98 424.45,-167.35"/>
<polygon fill="#5d6d7e" stroke="#5d6d7e" stroke-width="1.3" points="422.9,-169.68 431.23,-171.28 425.71,-164.84 422.9,-169.68"/>
</g>
<!-- LOAD -->
<g id="node8" class="node">
<title>LOAD</title>
<path fill="#f8c471" stroke="#d68910" stroke-width="1.2" d="M1100.49,-178C1100.49,-178 973.2,-178 973.2,-178 967.2,-178 961.2,-172 961.2,-166 961.2,-166 961.2,-154 961.2,-154 961.2,-148 967.2,-142 973.2,-142 973.2,-142 1100.49,-142 1100.49,-142 1106.49,-142 1112.49,-148 1112.49,-154 1112.49,-154 1112.49,-166 1112.49,-166 1112.49,-172 1106.49,-178 1100.49,-178"/>
<text xml:space="preserve" text-anchor="middle" x="1036.84" y="-156.3" font-family="Helvetica,sans-Serif" font-size="11.00">Load Model and Vectorizer</text>
</g>
<!-- NORM&#45;&gt;LOAD -->
<g id="edge7" class="edge">
<title>NORM&#45;&gt;LOAD</title>
<path fill="none" stroke="#5d6d7e" stroke-width="1.3" d="M352.94,-64.48C389.59,-60.49 432.86,-57 472.1,-57 472.1,-57 472.1,-57 833.05,-57 901.99,-57 971.22,-104.9 1008.28,-135.37"/>
<polygon fill="#5d6d7e" stroke="#5d6d7e" stroke-width="1.3" points="1006.25,-137.33 1014.18,-140.32 1009.85,-133.03 1006.25,-137.33"/>
</g>
<!-- TFIDF -->
<g id="node5" class="node">
<title>TFIDF</title>
<path fill="#af7ac5" stroke="#8e44ad" stroke-width="1.2" d="M690.91,-223.89C690.91,-223.89 605.62,-223.89 605.62,-223.89 599.62,-223.89 593.62,-217.89 593.62,-211.89 593.62,-211.89 593.62,-178.11 593.62,-178.11 593.62,-172.11 599.62,-166.11 605.62,-166.11 605.62,-166.11 690.91,-166.11 690.91,-166.11 696.91,-166.11 702.91,-172.11 702.91,-178.11 702.91,-178.11 702.91,-211.89 702.91,-211.89 702.91,-217.89 696.91,-223.89 690.91,-223.89"/>
<text xml:space="preserve" text-anchor="middle" x="648.26" y="-204.8" font-family="Helvetica,sans-Serif" font-size="11.00" fill="white">TF&#45;IDF Vectorizer</text>
<text xml:space="preserve" text-anchor="middle" x="648.26" y="-191.3" font-family="Helvetica,sans-Serif" font-size="11.00" fill="white">ngram=(1,2)</text>
<text xml:space="preserve" text-anchor="middle" x="648.26" y="-177.8" font-family="Helvetica,sans-Serif" font-size="11.00" fill="white">min_df=2</text>
</g>
<!-- TRAIN&#45;&gt;TFIDF -->
<g id="edge4" class="edge">
<title>TRAIN&#45;&gt;TFIDF</title>
<path fill="none" stroke="#5d6d7e" stroke-width="1.3" d="M539.07,-195C553.58,-195 568.94,-195 583.4,-195"/>
<polygon fill="#5d6d7e" stroke="#5d6d7e" stroke-width="1.3" points="583.28,-197.8 591.28,-195 583.28,-192.2 583.28,-197.8"/>
</g>
<!-- MODEL -->
<g id="node6" class="node">
<title>MODEL</title>
<path fill="#58d68d" stroke="#28b463" stroke-width="1.2" d="M906.2,-144.31C906.2,-146.44 872.97,-148.16 832.05,-148.16 791.14,-148.16 757.91,-146.44 757.91,-144.31 757.91,-144.31 757.91,-109.69 757.91,-109.69 757.91,-107.56 791.14,-105.84 832.05,-105.84 872.97,-105.84 906.2,-107.56 906.2,-109.69 906.2,-109.69 906.2,-144.31 906.2,-144.31"/>
<path fill="none" stroke="#28b463" stroke-width="1.2" d="M906.2,-144.31C906.2,-142.19 872.97,-140.47 832.05,-140.47 791.14,-140.47 757.91,-142.19 757.91,-144.31"/>
<text xml:space="preserve" text-anchor="middle" x="832.05" y="-123.3" font-family="Helvetica,sans-Serif" font-size="11.00" fill="white">event_classifier_model.pkl</text>
</g>
<!-- TFIDF&#45;&gt;MODEL -->
<g id="edge5" class="edge">
<title>TFIDF&#45;&gt;MODEL</title>
<path fill="none" stroke="#5d6d7e" stroke-width="1.3" d="M703.32,-174.78C723.01,-167.41 745.48,-159.01 766.03,-151.32"/>
<polygon fill="#5d6d7e" stroke="#5d6d7e" stroke-width="1.3" points="766.97,-153.96 773.48,-148.54 765.01,-148.72 766.97,-153.96"/>
</g>
<!-- VECTOR -->
<g id="node7" class="node">
<title>VECTOR</title>
<path fill="#58d68d" stroke="#28b463" stroke-width="1.2" d="M890.82,-218.31C890.82,-220.44 864.48,-222.16 832.05,-222.16 799.63,-222.16 773.28,-220.44 773.28,-218.31 773.28,-218.31 773.28,-183.69 773.28,-183.69 773.28,-181.56 799.63,-179.84 832.05,-179.84 864.48,-179.84 890.82,-181.56 890.82,-183.69 890.82,-183.69 890.82,-218.31 890.82,-218.31"/>
<path fill="none" stroke="#28b463" stroke-width="1.2" d="M890.82,-218.31C890.82,-216.19 864.48,-214.47 832.05,-214.47 799.63,-214.47 773.28,-216.19 773.28,-218.31"/>
<text xml:space="preserve" text-anchor="middle" x="832.05" y="-197.3" font-family="Helvetica,sans-Serif" font-size="11.00" fill="white">event_vectorizer.pkl</text>
</g>
<!-- TFIDF&#45;&gt;VECTOR -->
<g id="edge6" class="edge">
<title>TFIDF&#45;&gt;VECTOR</title>
<path fill="none" stroke="#5d6d7e" stroke-width="1.3" d="M703.32,-196.78C722.03,-197.4 743.25,-198.1 762.94,-198.75"/>
<polygon fill="#5d6d7e" stroke="#5d6d7e" stroke-width="1.3" points="762.72,-201.55 770.81,-199.01 762.91,-195.95 762.72,-201.55"/>
</g>
<!-- MODEL&#45;&gt;LOAD -->
<g id="edge8" class="edge">
<title>MODEL&#45;&gt;LOAD</title>
<path fill="none" stroke="#5d6d7e" stroke-width="1.3" d="M906.55,-138.96C921.06,-141.32 936.39,-143.82 951.23,-146.23"/>
<polygon fill="#5d6d7e" stroke="#5d6d7e" stroke-width="1.3" points="950.61,-148.97 958.95,-147.49 951.51,-143.44 950.61,-148.97"/>
</g>
<!-- VECTOR&#45;&gt;LOAD -->
<g id="edge9" class="edge">
<title>VECTOR&#45;&gt;LOAD</title>
<path fill="none" stroke="#5d6d7e" stroke-width="1.3" d="M891.17,-189.25C909.86,-185.47 930.97,-181.2 951.16,-177.12"/>
<polygon fill="#5d6d7e" stroke="#5d6d7e" stroke-width="1.3" points="951.46,-179.92 958.75,-175.59 950.35,-174.43 951.46,-179.92"/>
</g>
<!-- CLASSIFY -->
<g id="node9" class="node">
<title>CLASSIFY</title>
<path fill="#af7ac5" stroke="#8e44ad" stroke-width="1.2" d="M1267.03,-182C1267.03,-182 1188.49,-182 1188.49,-182 1182.49,-182 1176.49,-176 1176.49,-170 1176.49,-170 1176.49,-158 1176.49,-158 1176.49,-152 1182.49,-146 1188.49,-146 1188.49,-146 1267.03,-146 1267.03,-146 1273.03,-146 1279.03,-152 1279.03,-158 1279.03,-158 1279.03,-170 1279.03,-170 1279.03,-176 1273.03,-182 1267.03,-182"/>
<text xml:space="preserve" text-anchor="middle" x="1227.76" y="-160.3" font-family="Helvetica,sans-Serif" font-size="11.00" fill="white">classify_events()</text>
</g>
<!-- LOAD&#45;&gt;CLASSIFY -->
<g id="edge10" class="edge">
<title>LOAD&#45;&gt;CLASSIFY</title>
<path fill="none" stroke="#5d6d7e" stroke-width="1.3" d="M1113.05,-161.59C1130.68,-161.97 1149.25,-162.36 1166.15,-162.72"/>
<polygon fill="#5d6d7e" stroke="#5d6d7e" stroke-width="1.3" points="1165.87,-165.51 1173.93,-162.88 1165.99,-159.91 1165.87,-165.51"/>
</g>
<!-- DEV -->
<g id="node11" class="node">
<title>DEV</title>
<path fill="#aab7b8" stroke="#7b8a8b" stroke-width="1.2" d="M1276.03,-113.89C1276.03,-113.89 1179.49,-113.89 1179.49,-113.89 1173.49,-113.89 1167.49,-107.89 1167.49,-101.89 1167.49,-101.89 1167.49,-68.11 1167.49,-68.11 1167.49,-62.11 1173.49,-56.11 1179.49,-56.11 1179.49,-56.11 1276.03,-56.11 1276.03,-56.11 1282.03,-56.11 1288.03,-62.11 1288.03,-68.11 1288.03,-68.11 1288.03,-101.89 1288.03,-101.89 1288.03,-107.89 1282.03,-113.89 1276.03,-113.89"/>
<text xml:space="preserve" text-anchor="middle" x="1227.76" y="-94.8" font-family="Helvetica,sans-Serif" font-size="11.00" fill="white">Dev Tools</text>
<text xml:space="preserve" text-anchor="middle" x="1227.76" y="-81.3" font-family="Helvetica,sans-Serif" font-size="11.00" fill="white">profile_inference.py</text>
<text xml:space="preserve" text-anchor="middle" x="1227.76" y="-67.8" font-family="Helvetica,sans-Serif" font-size="11.00" fill="white">visualize_pipeline.py</text>
</g>
<!-- LOAD&#45;&gt;DEV -->
<g id="edge11" class="edge">
<title>LOAD&#45;&gt;DEV</title>
<path fill="none" stroke="#5d6d7e" stroke-width="1.3" d="M1084.54,-141.46C1106.63,-132.69 1133.45,-122.04 1157.82,-112.37"/>
<polygon fill="#5d6d7e" stroke="#5d6d7e" stroke-width="1.3" points="1158.8,-114.99 1165.2,-109.44 1156.73,-109.79 1158.8,-114.99"/>
</g>
<!-- BATCH -->
<g id="node10" class="node">
<title>BATCH</title>
<path fill="#af7ac5" stroke="#8e44ad" stroke-width="1.2" d="M1465.82,-186.14C1465.82,-186.14 1355.03,-186.14 1355.03,-186.14 1349.03,-186.14 1343.03,-180.14 1343.03,-174.14 1343.03,-174.14 1343.03,-153.86 1343.03,-153.86 1343.03,-147.86 1349.03,-141.86 1355.03,-141.86 1355.03,-141.86 1465.82,-141.86 1465.82,-141.86 1471.82,-141.86 1477.82,-147.86 1477.82,-153.86 1477.82,-153.86 1477.82,-174.14 1477.82,-174.14 1477.82,-180.14 1471.82,-186.14 1465.82,-186.14"/>
<text xml:space="preserve" text-anchor="middle" x="1410.42" y="-167.05" font-family="Helvetica,sans-Serif" font-size="11.00" fill="white">classify_events_batch()</text>
<text xml:space="preserve" text-anchor="middle" x="1410.42" y="-153.55" font-family="Helvetica,sans-Serif" font-size="11.00" fill="white">500 events per batch</text>
</g>
<!-- CLASSIFY&#45;&gt;BATCH -->
<g id="edge12" class="edge">
<title>CLASSIFY&#45;&gt;BATCH</title>
<path fill="none" stroke="#5d6d7e" stroke-width="1.3" d="M1279.57,-164C1296.03,-164 1314.68,-164 1332.61,-164"/>
<polygon fill="#5d6d7e" stroke="#5d6d7e" stroke-width="1.3" points="1332.5,-166.8 1340.5,-164 1332.5,-161.2 1332.5,-166.8"/>
</g>
<!-- ENRICH -->
<g id="node12" class="node">
<title>ENRICH</title>
<path fill="#f8c471" stroke="#d68910" stroke-width="1.2" d="M1780.61,-191.14C1780.61,-191.14 1651.07,-191.14 1651.07,-191.14 1645.07,-191.14 1639.07,-185.14 1639.07,-179.14 1639.07,-179.14 1639.07,-158.86 1639.07,-158.86 1639.07,-152.86 1645.07,-146.86 1651.07,-146.86 1651.07,-146.86 1780.61,-146.86 1780.61,-146.86 1786.61,-146.86 1792.61,-152.86 1792.61,-158.86 1792.61,-158.86 1792.61,-179.14 1792.61,-179.14 1792.61,-185.14 1786.61,-191.14 1780.61,-191.14"/>
<text xml:space="preserve" text-anchor="middle" x="1715.84" y="-172.05" font-family="Helvetica,sans-Serif" font-size="11.00">Event Normalizer</text>
<text xml:space="preserve" text-anchor="middle" x="1715.84" y="-158.55" font-family="Helvetica,sans-Serif" font-size="11.00">Tags, venue, needs_review</text>
</g>
<!-- BATCH&#45;&gt;ENRICH -->
<g id="edge13" class="edge">
<title>BATCH&#45;&gt;ENRICH</title>
<path fill="none" stroke="#5d6d7e" stroke-width="1.3" d="M1478.39,-165.1C1522.71,-165.83 1581.25,-166.8 1629,-167.59"/>
<polygon fill="#5d6d7e" stroke="#5d6d7e" stroke-width="1.3" points="1628.69,-170.38 1636.73,-167.71 1628.78,-164.78 1628.69,-170.38"/>
</g>
<!-- IMAGE -->
<g id="node13" class="node">
<title>IMAGE</title>
<path fill="#f8c471" stroke="#d68910" stroke-width="1.2" d="M1947.15,-191C1947.15,-191 1859.61,-191 1859.61,-191 1853.61,-191 1847.61,-185 1847.61,-179 1847.61,-179 1847.61,-167 1847.61,-167 1847.61,-161 1853.61,-155 1859.61,-155 1859.61,-155 1947.15,-155 1947.15,-155 1953.15,-155 1959.15,-161 1959.15,-167 1959.15,-167 1959.15,-179 1959.15,-179 1959.15,-185 1953.15,-191 1947.15,-191"/>
<text xml:space="preserve" text-anchor="middle" x="1903.38" y="-169.3" font-family="Helvetica,sans-Serif" font-size="11.00">Image Assignment</text>
</g>
<!-- ENRICH&#45;&gt;IMAGE -->
<g id="edge14" class="edge">
<title>ENRICH&#45;&gt;IMAGE</title>
<path fill="none" stroke="#5d6d7e" stroke-width="1.3" d="M1793.11,-170.64C1807.81,-170.96 1823.08,-171.29 1837.38,-171.6"/>
<polygon fill="#5d6d7e" stroke="#5d6d7e" stroke-width="1.3" points="1837.08,-174.39 1845.14,-171.77 1837.2,-168.79 1837.08,-174.39"/>
</g>
<!-- EXPORT -->
<g id="node14" class="node">
<title>EXPORT</title>
<path fill="#58d68d" stroke="#28b463" stroke-width="1.2" d="M2133.19,-193.31C2133.19,-195.44 2106.51,-197.16 2073.67,-197.16 2040.83,-197.16 2014.15,-195.44 2014.15,-193.31 2014.15,-193.31 2014.15,-158.69 2014.15,-158.69 2014.15,-156.56 2040.83,-154.84 2073.67,-154.84 2106.51,-154.84 2133.19,-156.56 2133.19,-158.69 2133.19,-158.69 2133.19,-193.31 2133.19,-193.31"/>
<path fill="none" stroke="#28b463" stroke-width="1.2" d="M2133.19,-193.31C2133.19,-191.19 2106.51,-189.47 2073.67,-189.47 2040.83,-189.47 2014.15,-191.19 2014.15,-193.31"/>
<text xml:space="preserve" text-anchor="middle" x="2073.67" y="-172.3" font-family="Helvetica,sans-Serif" font-size="11.00" fill="white">CSV / JSON Export</text>
</g>
<!-- IMAGE&#45;&gt;EXPORT -->
<g id="edge15" class="edge">
<title>IMAGE&#45;&gt;EXPORT</title>
<path fill="none" stroke="#5d6d7e" stroke-width="1.3" d="M1959.48,-173.98C1973.72,-174.24 1989.21,-174.51 2004.04,-174.78"/>
<polygon fill="#5d6d7e" stroke="#5d6d7e" stroke-width="1.3" points="2003.66,-177.57 2011.71,-174.91 2003.76,-171.97 2003.66,-177.57"/>
</g>
<!-- EMAIL -->
<g id="node15" class="node">
<title>EMAIL</title>
<path fill="#f8c471" stroke="#d68910" stroke-width="1.2" d="M2275.73,-195C2275.73,-195 2200.19,-195 2200.19,-195 2194.19,-195 2188.19,-189 2188.19,-183 2188.19,-183 2188.19,-171 2188.19,-171 2188.19,-165 2194.19,-159 2200.19,-159 2200.19,-159 2275.73,-159 2275.73,-159 2281.73,-159 2287.73,-165 2287.73,-171 2287.73,-171 2287.73,-183 2287.73,-183 2287.73,-189 2281.73,-195 2275.73,-195"/>
<text xml:space="preserve" text-anchor="middle" x="2237.96" y="-173.3" font-family="Helvetica,sans-Serif" font-size="11.00">Email Summary</text>
</g>
<!-- EXPORT&#45;&gt;EMAIL -->
<g id="edge16" class="edge">
<title>EXPORT&#45;&gt;EMAIL</title>
<path fill="none" stroke="#5d6d7e" stroke-width="1.3" d="M2133.72,-176.36C2148.15,-176.45 2163.59,-176.55 2178.02,-176.64"/>
<polygon fill="#5d6d7e" stroke="#5d6d7e" stroke-width="1.3" points="2177.84,-179.44 2185.86,-176.69 2177.87,-173.84 2177.84,-179.44"/>
</g>
<!-- WORDPRESS -->
<g id="node16" class="node">
<title>WORDPRESS</title>
<path fill="#ec7063" stroke="#c0392b" stroke-width="1.2" d="M2445.27,-195C2445.27,-195 2354.73,-195 2354.73,-195 2348.73,-195 2342.73,-189 2342.73,-183 2342.73,-183 2342.73,-171 2342.73,-171 2342.73,-165 2348.73,-159 2354.73,-159 2354.73,-159 2445.27,-159 2445.27,-159 2451.27,-159 2457.27,-165 2457.27,-171 2457.27,-171 2457.27,-183 2457.27,-183 2457.27,-189 2451.27,-195 2445.27,-195"/>
<text xml:space="preserve" text-anchor="middle" x="2400" y="-173.3" font-family="Helvetica,sans-Serif" font-size="11.00" fill="white">WordPress Upload</text>
</g>
<!-- EMAIL&#45;&gt;WORDPRESS -->
<g id="edge17" class="edge">
<title>EMAIL&#45;&gt;WORDPRESS</title>
<path fill="none" stroke="#5d6d7e" stroke-width="1.3" d="M2288.28,-177C2302.3,-177 2317.79,-177 2332.64,-177"/>
<polygon fill="#5d6d7e" stroke="#5d6d7e" stroke-width="1.3" points="2332.31,-179.8 2340.31,-177 2332.31,-174.2 2332.31,-179.8"/>
</g>
<!-- OUT -->
<g id="node17" class="node">
<title>OUT</title>
<path fill="#58d68d" stroke="#28b463" stroke-width="1.2" d="M2644.06,-218.5C2644.06,-222.49 2614.52,-225.72 2578.16,-225.72 2541.81,-225.72 2512.27,-222.49 2512.27,-218.5 2512.27,-218.5 2512.27,-153.5 2512.27,-153.5 2512.27,-149.51 2541.81,-146.28 2578.16,-146.28 2614.52,-146.28 2644.06,-149.51 2644.06,-153.5 2644.06,-153.5 2644.06,-218.5 2644.06,-218.5"/>
<path fill="none" stroke="#28b463" stroke-width="1.2" d="M2644.06,-218.5C2644.06,-214.52 2614.52,-211.28 2578.16,-211.28 2541.81,-211.28 2512.27,-214.52 2512.27,-218.5"/>
<text xml:space="preserve" text-anchor="middle" x="2578.16" y="-195.8" font-family="Helvetica,sans-Serif" font-size="11.00" fill="white">output/pipeline</text>
<text xml:space="preserve" text-anchor="middle" x="2578.16" y="-182.3" font-family="Helvetica,sans-Serif" font-size="11.00" fill="white">calendar_upload_*.csv</text>
<text xml:space="preserve" text-anchor="middle" x="2578.16" y="-168.8" font-family="Helvetica,sans-Serif" font-size="11.00" fill="white">logs</text>
</g>
<!-- WORDPRESS&#45;&gt;OUT -->
<g id="edge18" class="edge">
<title>WORDPRESS&#45;&gt;OUT</title>
<path fill="none" stroke="#5d6d7e" stroke-width="1.3" d="M2457.71,-179.9C2471.82,-180.62 2487.16,-181.4 2502.01,-182.16"/>
<polygon fill="#5d6d7e" stroke="#5d6d7e" stroke-width="1.3" points="2501.57,-184.94 2509.71,-182.55 2501.86,-179.35 2501.57,-184.94"/>
</g>
<!-- OUT&#45;&gt;TRAIN -->
<g id="edge19" class="edge">
<title>OUT&#45;&gt;TRAIN</title>
<path fill="none" stroke="#c0392b" stroke-width="1.3" stroke-dasharray="5,2" d="M2532.33,-225.17C2498.6,-250.59 2449.94,-279 2401,-279 647.26,-279 647.26,-279 647.26,-279 595.14,-279 542.24,-247.81 508.87,-223.44"/>
<polygon fill="#c0392b" stroke="#c0392b" stroke-width="1.3" points="510.89,-221.46 502.8,-218.91 507.54,-225.94 510.89,-221.46"/>
<text xml:space="preserve" text-anchor="middle" x="1558.44" y="-281.5" font-family="Helvetica,sans-Serif" font-size="10.00">label corrections / retrain</text>
</g>
</g>
</svg>
