<?xml version="1.0" encoding="UTF-8" standalone="no"?>
<!DOCTYPE svg PUBLIC "-//W3C//DTD SVG 1.1//EN"
 "http://www.w3.org/Graphics/SVG/1.1/DTD/svg11.dtd">
<!-- Generated by graphviz version 13.1.1 (20250719.2154)
 -->
<!-- Title: system_architecture Pages: 1 -->
<svg width="594pt" height="1863pt"
 viewBox="0.00 0.00 594.00 1863.00" xmlns="http://www.w3.org/2000/svg" xmlns:xlink="http://www.w3.org/1999/xlink">
<g id="graph0" class="graph" transform="scale(1 1) rotate(0) translate(32.4 1830.82)">
<title>system_architecture</title>
<polygon fill="white" stroke="none" points="-32.4,32.4 -32.4,-1830.82 561.4,-1830.82 561.4,32.4 -32.4,32.4"/>
<g id="clust1" class="cluster">
<title>cluster_sources</title>
<path fill="#f4fafe" stroke="#d6eaf8" d="M178,-1664.75C178,-1664.75 451,-1664.75 451,-1664.75 457,-1664.75 463,-1670.75 463,-1676.75 463,-1676.75 463,-1778.42 463,-1778.42 463,-1784.42 457,-1790.42 451,-1790.42 451,-1790.42 178,-1790.42 178,-1790.42 172,-1790.42 166,-1784.42 166,-1778.42 166,-1778.42 166,-1676.75 166,-1676.75 166,-1670.75 172,-1664.75 178,-1664.75"/>
<text xml:space="preserve" text-anchor="middle" x="314.5" y="-1773.12" font-family="Helvetica,sans-Serif" font-size="14.00">Input Sources</text>
</g>
<g id="clust2" class="cluster">
<title>cluster_training</title>
<path fill="#fbf5fd" stroke="#e8daef" d="M198,-1284.24C198,-1284.24 356,-1284.24 356,-1284.24 362,-1284.24 368,-1290.24 368,-1296.24 368,-1296.24 368,-1507.83 368,-1507.83 368,-1513.83 362,-1519.83 356,-1519.83 356,-1519.83 198,-1519.83 198,-1519.83 192,-1519.83 186,-1513.83 186,-1507.83 186,-1507.83 186,-1296.24 186,-1296.24 186,-1290.24 192,-1284.24 198,-1284.24"/>
<text xml:space="preserve" text-anchor="middle" x="277" y="-1502.53" font-family="Helvetica,sans-Serif" font-size="14.00">Training</text>
</g>
<g id="clust3" class="cluster">
<title>cluster_artifacts</title>
<path fill="#f4fdf7" stroke="#d5f5e3" d="M75,-1153.22C75,-1153.22 454,-1153.22 454,-1153.22 460,-1153.22 466,-1159.22 466,-1165.22 466,-1165.22 466,-1237.24 466,-1237.24 466,-1243.24 460,-1249.24 454,-1249.24 454,-1249.24 75,-1249.24 75,-1249.24 69,-1249.24 63,-1243.24 63,-1237.24 63,-1237.24 63,-1165.22 63,-1165.22 63,-1159.22 69,-1153.22 75,-1153.22"/>
<text xml:space="preserve" text-anchor="middle" x="264.5" y="-1231.94" font-family="Helvetica,sans-Serif" font-size="14.00">data/artifacts</text>
</g>
<g id="clust4" class="cluster">
<title>cluster_inference</title>
<path fill="#fff8ed" stroke="#fdebd0" d="M270,-772.71C270,-772.71 454,-772.71 454,-772.71 460,-772.71 466,-778.71 466,-784.71 466,-784.71 466,-1106.22 466,-1106.22 466,-1112.22 460,-1118.22 454,-1118.22 454,-1118.22 270,-1118.22 270,-1118.22 264,-1118.22 258,-1112.22 258,-1106.22 258,-1106.22 258,-784.71 258,-784.71 258,-778.71 264,-772.71 270,-772.71"/>
<text xml:space="preserve" text-anchor="middle" x="362" y="-1100.92" font-family="Helvetica,sans-Serif" font-size="14.00">Inference</text>
</g>
<g id="clust5" class="cluster">
<title>cluster_output</title>
<path fill="#fff5f4" stroke="#fadbd8" d="M166,-8C166,-8 354,-8 354,-8 360,-8 366,-14 366,-20 366,-20 366,-713.21 366,-713.21 366,-719.21 360,-725.21 354,-725.21 354,-725.21 166,-725.21 166,-725.21 160,-725.21 154,-719.21 154,-713.21 154,-713.21 154,-20 154,-20 154,-14 160,-8 166,-8"/>
<text xml:space="preserve" text-anchor="middle" x="260" y="-707.91" font-family="Helvetica,sans-Serif" font-size="14.00">Output Enrichment</text>
</g>
<!-- WS -->
<g id="node1" class="node">
<title>WS</title>
<path fill="#5dade2" stroke="#2e86c1" stroke-width="1.3" d="M298.34,-1758.67C298.34,-1758.67 185.66,-1758.67 185.66,-1758.67 179.66,-1758.67 173.66,-1752.67 173.66,-1746.67 173.66,-1746.67 173.66,-1684.75 173.66,-1684.75 173.66,-1678.75 179.66,-1672.75 185.66,-1672.75 185.66,-1672.75 298.34,-1672.75 298.34,-1672.75 304.34,-1672.75 310.34,-1678.75 310.34,-1684.75 310.34,-1684.75 310.34,-1746.67 310.34,-1746.67 310.34,-1752.67 304.34,-1758.67 298.34,-1758.67"/>
<text xml:space="preserve" text-anchor="middle" x="242" y="-1733.36" font-family="Helvetica,sans-Serif" font-size="13.00" fill="white">Web Scrapers</text>
<text xml:space="preserve" text-anchor="middle" x="242" y="-1718.36" font-family="Helvetica,sans-Serif" font-size="13.00" fill="white">Perdido Chamber</text>
<text xml:space="preserve" text-anchor="middle" x="242" y="-1703.36" font-family="Helvetica,sans-Serif" font-size="13.00" fill="white">Wren Haven</text>
<text xml:space="preserve" text-anchor="middle" x="242" y="-1688.36" font-family="Helvetica,sans-Serif" font-size="13.00" fill="white">Multi&#45;source</text>
</g>
<!-- NORM -->
<g id="node3" class="node">
<title>NORM</title>
<path fill="#f8c471" stroke="#d68910" stroke-width="1.3" d="M421.84,-1603.75C421.84,-1603.75 228.16,-1603.75 228.16,-1603.75 222.16,-1603.75 216.16,-1597.75 216.16,-1591.75 216.16,-1591.75 216.16,-1574.83 216.16,-1574.83 216.16,-1568.83 222.16,-1562.83 228.16,-1562.83 228.16,-1562.83 421.84,-1562.83 421.84,-1562.83 427.84,-1562.83 433.84,-1568.83 433.84,-1574.83 433.84,-1574.83 433.84,-1591.75 433.84,-1591.75 433.84,-1597.75 427.84,-1603.75 421.84,-1603.75"/>
<text xml:space="preserve" text-anchor="middle" x="325" y="-1578.44" font-family="Helvetica,sans-Serif" font-size="13.00">Data Collection and Normalizer</text>
</g>
<!-- WS&#45;&gt;NORM -->
<g id="edge1" class="edge">
<title>WS&#45;&gt;NORM</title>
<path fill="none" stroke="#5d6d7e" stroke-width="1.5" d="M268.95,-1672.36C281.25,-1653.03 295.5,-1630.63 306.56,-1613.26"/>
<polygon fill="#5d6d7e" stroke="#5d6d7e" stroke-width="1.5" points="308.95,-1615.38 311.12,-1606.09 303.63,-1612 308.95,-1615.38"/>
</g>
<!-- ICS -->
<g id="node2" class="node">
<title>ICS</title>
<path fill="#5dade2" stroke="#2e86c1" stroke-width="1.3" d="M442.84,-1736.17C442.84,-1736.17 369.16,-1736.17 369.16,-1736.17 363.16,-1736.17 357.16,-1730.17 357.16,-1724.17 357.16,-1724.17 357.16,-1707.25 357.16,-1707.25 357.16,-1701.25 363.16,-1695.25 369.16,-1695.25 369.16,-1695.25 442.84,-1695.25 442.84,-1695.25 448.84,-1695.25 454.84,-1701.25 454.84,-1707.25 454.84,-1707.25 454.84,-1724.17 454.84,-1724.17 454.84,-1730.17 448.84,-1736.17 442.84,-1736.17"/>
<text xml:space="preserve" text-anchor="middle" x="406" y="-1710.86" font-family="Helvetica,sans-Serif" font-size="13.00" fill="white">ICS Parser</text>
</g>
<!-- ICS&#45;&gt;NORM -->
<g id="edge2" class="edge">
<title>ICS&#45;&gt;NORM</title>
<path fill="none" stroke="#5d6d7e" stroke-width="1.5" d="M393.52,-1694.61C380.04,-1672.91 358.45,-1638.14 343.11,-1613.44"/>
<polygon fill="#5d6d7e" stroke="#5d6d7e" stroke-width="1.5" points="345.98,-1612.1 338.56,-1606.11 340.63,-1615.42 345.98,-1612.1"/>
</g>
<!-- TRAIN -->
<g id="node4" class="node">
<title>TRAIN</title>
<path fill="#af7ac5" stroke="#8e44ad" stroke-width="1.3" d="M347.97,-1488.08C347.97,-1488.08 206.03,-1488.08 206.03,-1488.08 200.03,-1488.08 194.03,-1482.08 194.03,-1476.08 194.03,-1476.08 194.03,-1444.16 194.03,-1444.16 194.03,-1438.16 200.03,-1432.16 206.03,-1432.16 206.03,-1432.16 347.97,-1432.16 347.97,-1432.16 353.97,-1432.16 359.97,-1438.16 359.97,-1444.16 359.97,-1444.16 359.97,-1476.08 359.97,-1476.08 359.97,-1482.08 353.97,-1488.08 347.97,-1488.08"/>
<text xml:space="preserve" text-anchor="middle" x="277" y="-1462.77" font-family="Helvetica,sans-Serif" font-size="13.00" fill="white">SVM Training</text>
<text xml:space="preserve" text-anchor="middle" x="277" y="-1447.77" font-family="Helvetica,sans-Serif" font-size="13.00" fill="white">svm_train_from_file.py</text>
</g>
<!-- NORM&#45;&gt;TRAIN -->
<g id="edge3" class="edge">
<title>NORM&#45;&gt;TRAIN</title>
<path fill="none" stroke="#5d6d7e" stroke-width="1.5" d="M317.07,-1562.28C310.24,-1545.03 300.19,-1519.65 291.86,-1498.63"/>
<polygon fill="#5d6d7e" stroke="#5d6d7e" stroke-width="1.5" points="294.89,-1497.73 288.65,-1490.52 289.04,-1500.05 294.89,-1497.73"/>
</g>
<!-- LOAD -->
<g id="node8" class="node">
<title>LOAD</title>
<path fill="#f8c471" stroke="#d68910" stroke-width="1.3" d="M445.72,-1086.47C445.72,-1086.47 278.28,-1086.47 278.28,-1086.47 272.28,-1086.47 266.28,-1080.47 266.28,-1074.47 266.28,-1074.47 266.28,-1057.55 266.28,-1057.55 266.28,-1051.55 272.28,-1045.55 278.28,-1045.55 278.28,-1045.55 445.72,-1045.55 445.72,-1045.55 451.72,-1045.55 457.72,-1051.55 457.72,-1057.55 457.72,-1057.55 457.72,-1074.47 457.72,-1074.47 457.72,-1080.47 451.72,-1086.47 445.72,-1086.47"/>
<text xml:space="preserve" text-anchor="middle" x="362" y="-1061.16" font-family="Helvetica,sans-Serif" font-size="13.00">Load Model and Vectorizer</text>
</g>
<!-- NORM&#45;&gt;LOAD -->
<g id="edge7" class="edge">
<title>NORM&#45;&gt;LOAD</title>
<path fill="none" stroke="#5d6d7e" stroke-width="1.5" d="M424.01,-1562.23C475.99,-1545.31 529,-1514.87 529,-1461.12 529,-1461.12 529,-1461.12 529,-1188.35 529,-1140.91 484.34,-1110.08 441.21,-1091.38"/>
<polygon fill="#5d6d7e" stroke="#5d6d7e" stroke-width="1.5" points="442.51,-1088.51 432.99,-1087.98 440.1,-1094.33 442.51,-1088.51"/>
</g>
<!-- TFIDF -->
<g id="node5" class="node">
<title>TFIDF</title>
<path fill="#af7ac5" stroke="#8e44ad" stroke-width="1.3" d="M334.09,-1363.16C334.09,-1363.16 219.91,-1363.16 219.91,-1363.16 213.91,-1363.16 207.91,-1357.16 207.91,-1351.16 207.91,-1351.16 207.91,-1304.24 207.91,-1304.24 207.91,-1298.24 213.91,-1292.24 219.91,-1292.24 219.91,-1292.24 334.09,-1292.24 334.09,-1292.24 340.09,-1292.24 346.09,-1298.24 346.09,-1304.24 346.09,-1304.24 346.09,-1351.16 346.09,-1351.16 346.09,-1357.16 340.09,-1363.16 334.09,-1363.16"/>
<text xml:space="preserve" text-anchor="middle" x="277" y="-1337.85" font-family="Helvetica,sans-Serif" font-size="13.00" fill="white">TF&#45;IDF Vectorizer</text>
<text xml:space="preserve" text-anchor="middle" x="277" y="-1322.85" font-family="Helvetica,sans-Serif" font-size="13.00" fill="white">ngram=(1,2)</text>
<text xml:space="preserve" text-anchor="middle" x="277" y="-1307.85" font-family="Helvetica,sans-Serif" font-size="13.00" fill="white">min_df=2</text>
</g>
<!-- TRAIN&#45;&gt;TFIDF -->
<g id="edge4" class="edge">
<title>TRAIN&#45;&gt;TFIDF</title>
<path fill="none" stroke="#5d6d7e" stroke-width="1.5" d="M277,-1431.77C277,-1415.24 277,-1393.74 277,-1374.66"/>
<polygon fill="#5d6d7e" stroke="#5d6d7e" stroke-width="1.5" points="280.15,-1374.73 277,-1365.73 273.85,-1374.73 280.15,-1374.73"/>
</g>
<!-- MODEL -->
<g id="node6" class="node">
<title>MODEL</title>
<path fill="#58d68d" stroke="#28b463" stroke-width="1.3" d="M260.59,-1212.37C260.59,-1215.19 218.19,-1217.49 166,-1217.49 113.81,-1217.49 71.41,-1215.19 71.41,-1212.37 71.41,-1212.37 71.41,-1166.34 71.41,-1166.34 71.41,-1163.51 113.81,-1161.22 166,-1161.22 218.19,-1161.22 260.59,-1163.51 260.59,-1166.34 260.59,-1166.34 260.59,-1212.37 260.59,-1212.37"/>
<path fill="none" stroke="#28b463" stroke-width="1.3" d="M260.59,-1212.37C260.59,-1209.55 218.19,-1207.26 166,-1207.26 113.81,-1207.26 71.41,-1209.55 71.41,-1212.37"/>
<text xml:space="preserve" text-anchor="middle" x="166" y="-1184.5" font-family="Helvetica,sans-Serif" font-size="13.00" fill="white">event_classifier_model.pkl</text>
</g>
<!-- TFIDF&#45;&gt;MODEL -->
<g id="edge5" class="edge">
<title>TFIDF&#45;&gt;MODEL</title>
<path fill="none" stroke="#5d6d7e" stroke-width="1.5" d="M248.7,-1291.94C232.36,-1271.87 211.85,-1246.67 195.34,-1226.39"/>
<polygon fill="#5d6d7e" stroke="#5d6d7e" stroke-width="1.5" points="197.86,-1224.49 189.73,-1219.5 192.97,-1228.47 197.86,-1224.49"/>
</g>
<!-- VECTOR -->
<g id="node7" class="node">
<title>VECTOR</title>
<path fill="#58d68d" stroke="#28b463" stroke-width="1.3" d="M458.47,-1212.37C458.47,-1215.19 424.64,-1217.49 383,-1217.49 341.36,-1217.49 307.53,-1215.19 307.53,-1212.37 307.53,-1212.37 307.53,-1166.34 307.53,-1166.34 307.53,-1163.51 341.36,-1161.22 383,-1161.22 424.64,-1161.22 458.47,-1163.51 458.47,-1166.34 458.47,-1166.34 458.47,-1212.37 458.47,-1212.37"/>
<path fill="none" stroke="#28b463" stroke-width="1.3" d="M458.47,-1212.37C458.47,-1209.55 424.64,-1207.26 383,-1207.26 341.36,-1207.26 307.53,-1209.55 307.53,-1212.37"/>
<text xml:space="preserve" text-anchor="middle" x="383" y="-1184.5" font-family="Helvetica,sans-Serif" font-size="13.00" fill="white">event_vectorizer.pkl</text>
</g>
<!-- TFIDF&#45;&gt;VECTOR -->
<g id="edge6" class="edge">
<title>TFIDF&#45;&gt;VECTOR</title>
<path fill="none" stroke="#5d6d7e" stroke-width="1.5" d="M304.02,-1291.94C319.62,-1271.87 339.22,-1246.67 354.98,-1226.39"/>
<polygon fill="#5d6d7e" stroke="#5d6d7e" stroke-width="1.5" points="357.28,-1228.57 360.31,-1219.53 352.3,-1224.71 357.28,-1228.57"/>
</g>
<!-- MODEL&#45;&gt;LOAD -->
<g id="edge8" class="edge">
<title>MODEL&#45;&gt;LOAD</title>
<path fill="none" stroke="#5d6d7e" stroke-width="1.5" d="M210.48,-1160.82C243.47,-1140.39 288.15,-1112.73 320.43,-1092.74"/>
<polygon fill="#5d6d7e" stroke="#5d6d7e" stroke-width="1.5" points="321.68,-1095.67 327.68,-1088.26 318.37,-1090.32 321.68,-1095.67"/>
</g>
<!-- VECTOR&#45;&gt;LOAD -->
<g id="edge9" class="edge">
<title>VECTOR&#45;&gt;LOAD</title>
<path fill="none" stroke="#5d6d7e" stroke-width="1.5" d="M378.23,-1160.82C374.99,-1142.08 370.7,-1117.27 367.34,-1097.87"/>
<polygon fill="#5d6d7e" stroke="#5d6d7e" stroke-width="1.5" points="370.46,-1097.44 365.83,-1089.11 364.26,-1098.52 370.46,-1097.44"/>
</g>
<!-- CLASSIFY -->
<g id="node9" class="node">
<title>CLASSIFY</title>
<path fill="#af7ac5" stroke="#8e44ad" stroke-width="1.3" d="M416.09,-961.55C416.09,-961.55 307.91,-961.55 307.91,-961.55 301.91,-961.55 295.91,-955.55 295.91,-949.55 295.91,-949.55 295.91,-932.63 295.91,-932.63 295.91,-926.63 301.91,-920.63 307.91,-920.63 307.91,-920.63 416.09,-920.63 416.09,-920.63 422.09,-920.63 428.09,-926.63 428.09,-932.63 428.09,-932.63 428.09,-949.55 428.09,-949.55 428.09,-955.55 422.09,-961.55 416.09,-961.55"/>
<text xml:space="preserve" text-anchor="middle" x="362" y="-936.24" font-family="Helvetica,sans-Serif" font-size="13.00" fill="white">classify_events()</text>
</g>
<!-- LOAD&#45;&gt;CLASSIFY -->
<g id="edge10" class="edge">
<title>LOAD&#45;&gt;CLASSIFY</title>
<path fill="none" stroke="#5d6d7e" stroke-width="1.5" d="M362,-1044.99C362,-1025.52 362,-995.68 362,-973.13"/>
<polygon fill="#5d6d7e" stroke="#5d6d7e" stroke-width="1.5" points="365.15,-973.37 362,-964.37 358.85,-973.37 365.15,-973.37"/>
</g>
<!-- DEV -->
<g id="node11" class="node">
<title>DEV</title>
<path fill="#aab7b8" stroke="#7b8a8b" stroke-width="1.3" d="M236.72,-976.55C236.72,-976.55 105.28,-976.55 105.28,-976.55 99.28,-976.55 93.28,-970.55 93.28,-964.55 93.28,-964.55 93.28,-917.63 93.28,-917.63 93.28,-911.63 99.28,-905.63 105.28,-905.63 105.28,-905.63 236.72,-905.63 236.72,-905.63 242.72,-905.63 248.72,-911.63 248.72,-917.63 248.72,-917.63 248.72,-964.55 248.72,-964.55 248.72,-970.55 242.72,-976.55 236.72,-976.55"/>
<text xml:space="preserve" text-anchor="middle" x="171" y="-951.24" font-family="Helvetica,sans-Serif" font-size="13.00" fill="white">Dev Tools</text>
<text xml:space="preserve" text-anchor="middle" x="171" y="-936.24" font-family="Helvetica,sans-Serif" font-size="13.00" fill="white">profile_inference.py</text>
<text xml:space="preserve" text-anchor="middle" x="171" y="-921.24" font-family="Helvetica,sans-Serif" font-size="13.00" fill="white">visualize_pipeline.py</text>
</g>
<!-- LOAD&#45;&gt;DEV -->
<g id="edge11" class="edge">
<title>LOAD&#45;&gt;DEV</title>
<path fill="none" stroke="#5d6d7e" stroke-width="1.5" d="M330.89,-1044.99C304.91,-1028.27 267.04,-1003.9 234.67,-983.07"/>
<polygon fill="#5d6d7e" stroke="#5d6d7e" stroke-width="1.5" points="236.45,-980.46 227.17,-978.24 233.04,-985.76 236.45,-980.46"/>
</g>
<!-- BATCH -->
<g id="node10" class="node">
<title>BATCH</title>
<path fill="#af7ac5" stroke="#8e44ad" stroke-width="1.3" d="M428.34,-836.63C428.34,-836.63 279.66,-836.63 279.66,-836.63 273.66,-836.63 267.66,-830.63 267.66,-824.63 267.66,-824.63 267.66,-792.71 267.66,-792.71 267.66,-786.71 273.66,-780.71 279.66,-780.71 279.66,-780.71 428.34,-780.71 428.34,-780.71 434.34,-780.71 440.34,-786.71 440.34,-792.71 440.34,-792.71 440.34,-824.63 440.34,-824.63 440.34,-830.63 434.34,-836.63 428.34,-836.63"/>
<text xml:space="preserve" text-anchor="middle" x="354" y="-811.32" font-family="Helvetica,sans-Serif" font-size="13.00" fill="white">classify_events_batch()</text>
<text xml:space="preserve" text-anchor="middle" x="354" y="-796.32" font-family="Helvetica,sans-Serif" font-size="13.00" fill="white">500 events per batch</text>
</g>
<!-- CLASSIFY&#45;&gt;BATCH -->
<g id="edge12" class="edge">
<title>CLASSIFY&#45;&gt;BATCH</title>
<path fill="none" stroke="#5d6d7e" stroke-width="1.5" d="M360.77,-920C359.59,-900.84 357.79,-871.49 356.34,-847.88"/>
<polygon fill="#5d6d7e" stroke="#5d6d7e" stroke-width="1.5" points="359.5,-847.87 355.8,-839.08 353.21,-848.26 359.5,-847.87"/>
</g>
<!-- ENRICH -->
<g id="node12" class="node">
<title>ENRICH</title>
<path fill="#f8c471" stroke="#d68910" stroke-width="1.3" d="M345.59,-693.46C345.59,-693.46 174.41,-693.46 174.41,-693.46 168.41,-693.46 162.41,-687.46 162.41,-681.46 162.41,-681.46 162.41,-649.54 162.41,-649.54 162.41,-643.54 168.41,-637.54 174.41,-637.54 174.41,-637.54 345.59,-637.54 345.59,-637.54 351.59,-637.54 357.59,-643.54 357.59,-649.54 357.59,-649.54 357.59,-681.46 357.59,-681.46 357.59,-687.46 351.59,-693.46 345.59,-693.46"/>
<text xml:space="preserve" text-anchor="middle" x="260" y="-668.15" font-family="Helvetica,sans-Serif" font-size="13.00">Event Normalizer</text>
<text xml:space="preserve" text-anchor="middle" x="260" y="-653.15" font-family="Helvetica,sans-Serif" font-size="13.00">Tags, venue, needs_review</text>
</g>
<!-- BATCH&#45;&gt;ENRICH -->
<g id="edge13" class="edge">
<title>BATCH&#45;&gt;ENRICH</title>
<path fill="none" stroke="#5d6d7e" stroke-width="1.5" d="M335.65,-780.12C321.03,-758.16 300.43,-727.21 284.41,-703.16"/>
<polygon fill="#5d6d7e" stroke="#5d6d7e" stroke-width="1.5" points="287.17,-701.62 279.56,-695.87 281.93,-705.11 287.17,-701.62"/>
</g>
<!-- IMAGE -->
<g id="node13" class="node">
<title>IMAGE</title>
<path fill="#f8c471" stroke="#d68910" stroke-width="1.3" d="M317.59,-568.54C317.59,-568.54 200.41,-568.54 200.41,-568.54 194.41,-568.54 188.41,-562.54 188.41,-556.54 188.41,-556.54 188.41,-539.62 188.41,-539.62 188.41,-533.62 194.41,-527.62 200.41,-527.62 200.41,-527.62 317.59,-527.62 317.59,-527.62 323.59,-527.62 329.59,-533.62 329.59,-539.62 329.59,-539.62 329.59,-556.54 329.59,-556.54 329.59,-562.54 323.59,-568.54 317.59,-568.54"/>
<text xml:space="preserve" text-anchor="middle" x="259" y="-543.23" font-family="Helvetica,sans-Serif" font-size="13.00">Image Assignment</text>
</g>
<!-- ENRICH&#45;&gt;IMAGE -->
<g id="edge14" class="edge">
<title>ENRICH&#45;&gt;IMAGE</title>
<path fill="none" stroke="#5d6d7e" stroke-width="1.5" d="M259.76,-637.15C259.61,-620.06 259.42,-598 259.27,-580.24"/>
<polygon fill="#5d6d7e" stroke="#5d6d7e" stroke-width="1.5" points="262.42,-580.26 259.19,-571.28 256.12,-580.31 262.42,-580.26"/>
</g>
<!-- EXPORT -->
<g id="node14" class="node">
<title>EXPORT</title>
<path fill="#58d68d" stroke="#28b463" stroke-width="1.3" d="M332.34,-453.5C332.34,-456.33 299.02,-458.62 258,-458.62 216.98,-458.62 183.66,-456.33 183.66,-453.5 183.66,-453.5 183.66,-407.47 183.66,-407.47 183.66,-404.65 216.98,-402.36 258,-402.36 299.02,-402.36 332.34,-404.65 332.34,-407.47 332.34,-407.47 332.34,-453.5 332.34,-453.5"/>
<path fill="none" stroke="#28b463" stroke-width="1.3" d="M332.34,-453.5C332.34,-450.68 299.02,-448.39 258,-448.39 216.98,-448.39 183.66,-450.68 183.66,-453.5"/>
<text xml:space="preserve" text-anchor="middle" x="258" y="-425.64" font-family="Helvetica,sans-Serif" font-size="13.00" fill="white">CSV / JSON Export</text>
</g>
<!-- IMAGE&#45;&gt;EXPORT -->
<g id="edge15" class="edge">
<title>IMAGE&#45;&gt;EXPORT</title>
<path fill="none" stroke="#5d6d7e" stroke-width="1.5" d="M258.83,-527.21C258.69,-511.53 258.5,-489.17 258.33,-470.01"/>
<polygon fill="#5d6d7e" stroke="#5d6d7e" stroke-width="1.5" points="261.48,-470.12 258.26,-461.15 255.18,-470.18 261.48,-470.12"/>
</g>
<!-- EMAIL -->
<g id="node15" class="node">
<title>EMAIL</title>
<path fill="#f8c471" stroke="#d68910" stroke-width="1.3" d="M301.34,-333.36C301.34,-333.36 200.66,-333.36 200.66,-333.36 194.66,-333.36 188.66,-327.36 188.66,-321.36 188.66,-321.36 188.66,-304.44 188.66,-304.44 188.66,-298.44 194.66,-292.44 200.66,-292.44 200.66,-292.44 301.34,-292.44 301.34,-292.44 307.34,-292.44 313.34,-298.44 313.34,-304.44 313.34,-304.44 313.34,-321.36 313.34,-321.36 313.34,-327.36 307.34,-333.36 301.34,-333.36"/>
<text xml:space="preserve" text-anchor="middle" x="251" y="-308.05" font-family="Helvetica,sans-Serif" font-size="13.00">Email Summary</text>
</g>
<!-- EXPORT&#45;&gt;EMAIL -->
<g id="edge16" class="edge">
<title>EXPORT&#45;&gt;EMAIL</title>
<path fill="none" stroke="#5d6d7e" stroke-width="1.5" d="M256.32,-401.8C255.29,-384.68 253.95,-362.67 252.88,-344.95"/>
<polygon fill="#5d6d7e" stroke="#5d6d7e" stroke-width="1.5" points="256.03,-344.82 252.34,-336.02 249.74,-345.2 256.03,-344.82"/>
</g>
<!-- WORDPRESS -->
<g id="node16" class="node">
<title>WORDPRESS</title>
<path fill="#ec7063" stroke="#c0392b" stroke-width="1.3" d="M308.09,-223.44C308.09,-223.44 187.91,-223.44 187.91,-223.44 181.91,-223.44 175.91,-217.44 175.91,-211.44 175.91,-211.44 175.91,-194.52 175.91,-194.52 175.91,-188.52 181.91,-182.52 187.91,-182.52 187.91,-182.52 308.09,-182.52 308.09,-182.52 314.09,-182.52 320.09,-188.52 320.09,-194.52 320.09,-194.52 320.09,-211.44 320.09,-211.44 320.09,-217.44 314.09,-223.44 308.09,-223.44"/>
<text xml:space="preserve" text-anchor="middle" x="248" y="-198.13" font-family="Helvetica,sans-Serif" font-size="13.00" fill="white">WordPress Upload</text>
</g>
<!-- EMAIL&#45;&gt;WORDPRESS -->
<g id="edge17" class="edge">
<title>EMAIL&#45;&gt;WORDPRESS</title>
<path fill="none" stroke="#5d6d7e" stroke-width="1.5" d="M250.44,-291.85C250,-275.87 249.37,-253.22 248.86,-234.92"/>
<polygon fill="#5d6d7e" stroke="#5d6d7e" stroke-width="1.5" points="252.02,-235.09 248.62,-226.18 245.72,-235.27 252.02,-235.09"/>
</g>
<!-- OUT -->
<g id="node17" class="node">
<title>OUT</title>
<path fill="#58d68d" stroke="#28b463" stroke-width="1.3" d="M330.09,-104.65C330.09,-109.54 292.4,-113.52 246,-113.52 199.6,-113.52 161.91,-109.54 161.91,-104.65 161.91,-104.65 161.91,-24.87 161.91,-24.87 161.91,-19.97 199.6,-16 246,-16 292.4,-16 330.09,-19.97 330.09,-24.87 330.09,-24.87 330.09,-104.65 330.09,-104.65"/>
<path fill="none" stroke="#28b463" stroke-width="1.3" d="M330.09,-104.65C330.09,-99.76 292.4,-95.78 246,-95.78 199.6,-95.78 161.91,-99.76 161.91,-104.65"/>
<text xml:space="preserve" text-anchor="middle" x="246" y="-74.91" font-family="Helvetica,sans-Serif" font-size="13.00" fill="white">output/pipeline</text>
<text xml:space="preserve" text-anchor="middle" x="246" y="-59.91" font-family="Helvetica,sans-Serif" font-size="13.00" fill="white">calendar_upload_*.csv</text>
<text xml:space="preserve" text-anchor="middle" x="246" y="-44.91" font-family="Helvetica,sans-Serif" font-size="13.00" fill="white">logs</text>
</g>
<!-- WORDPRESS&#45;&gt;OUT -->
<g id="edge18" class="edge">
<title>WORDPRESS&#45;&gt;OUT</title>
<path fill="none" stroke="#5d6d7e" stroke-width="1.5" d="M247.7,-181.88C247.48,-166.83 247.17,-145.42 246.87,-125.07"/>
<polygon fill="#5d6d7e" stroke="#5d6d7e" stroke-width="1.5" points="250.02,-125.15 246.74,-116.19 243.72,-125.24 250.02,-125.15"/>
</g>
<!-- OUT&#45;&gt;TRAIN -->
<g id="edge19" class="edge">
<title>OUT&#45;&gt;TRAIN</title>
<path fill="none" stroke="#c0392b" stroke-width="1.5" stroke-dasharray="5,2" d="M161.34,-77.3C90.18,-92.33 0,-126.31 0,-201.98 0,-1328.7 0,-1328.7 0,-1328.7 0,-1411.32 102.12,-1441.69 182.35,-1452.8"/>
<polygon fill="#c0392b" stroke="#c0392b" stroke-width="1.5" points="181.93,-1455.92 191.26,-1453.95 182.74,-1449.67 181.93,-1455.92"/>
<text xml:space="preserve" text-anchor="middle" x="58.88" y="-736.26" font-family="Helvetica,sans-Serif" font-size="11.00">label corrections / retrain</text>
</g>
</g>
</svg>
